<?xml version="1.0" encoding="utf-8" standalone="no"?>
<!DOCTYPE svg PUBLIC "-//W3C//DTD SVG 1.1//EN"
  "http://www.w3.org/Graphics/SVG/1.1/DTD/svg11.dtd">
<svg xmlns:xlink="http://www.w3.org/1999/xlink" width="443.961753pt" height="554.4pt" viewBox="0 0 443.961753 554.4" xmlns="http://www.w3.org/2000/svg" version="1.1">
 <metadata>
  <rdf:RDF xmlns:dc="http://purl.org/dc/elements/1.1/" xmlns:cc="http://creativecommons.org/ns#" xmlns:rdf="http://www.w3.org/1999/02/22-rdf-syntax-ns#">
   <cc:Work>
    <dc:type rdf:resource="http://purl.org/dc/dcmitype/StillImage"/>
    <dc:date>2025-10-02T00:18:48.012773</dc:date>
    <dc:format>image/svg+xml</dc:format>
    <dc:creator>
     <cc:Agent>
      <dc:title>Matplotlib v3.8.3, https://matplotlib.org/</dc:title>
     </cc:Agent>
    </dc:creator>
   </cc:Work>
  </rdf:RDF>
 </metadata>
 <defs>
  <style type="text/css">*{stroke-linejoin: round; stroke-linecap: butt}</style>
 </defs>
 <g id="figure_1">
  <g id="patch_1">
   <path d="M 0 554.4 
L 443.961753 554.4 
L 443.961753 0 
L 0 0 
z
" style="fill: #ffffff"/>
  </g>
  <g id="axes_1">
   <g id="line2d_1">
    <path d="M 182.839345 405.258682 
L 191.36643 411.082308 
L 193.072143 388.423444 
L 172.797981 385.362779 
L 141.74306 379.680734 
L 149.572615 360.95721 
L 210.861921 342.033394 
L 231.480519 333.631655 
L 247.240179 304.512387 
L 272.19178 284.864006 
L 245.555307 219.727635 
L 276.933764 220.324266 
L 313.146151 222.659921 
L 314.921326 220.697194 
L 315.832009 208.524995 
L 313.212569 178.454253 
L 318.326615 180.868157 
L 330.708911 182.694145 
L 325.088071 171.972192 
L 329.733063 169.615421 
L 347.721233 162.607329 
L 348.463423 174.168503 
L 343.518362 178.376372 
L 337.02909 195.076203 
L 344.384749 227.937346 
L 350.844626 234.165705 
L 348.31808 234.375583 
L 346.016875 237.470353 
L 349.937762 247.423715 
L 364.006591 239.68653 
L 366.743665 240.889072 
L 379.396522 241.588402 
L 367.081363 227.505512 
L 376.78947 202.001399 
L 386.359498 194.128394 
L 366.997809 187.992557 
L 373.58999 168.838188 
L 385.283216 158.946148 
L 347.823343 138.739504 
L 345.315783 137.233015 
L 351.893894 118.397365 
L 361.851799 134.165502 
L 370.532092 137.273359 
L 387.060772 122.025575 
L 412.349169 65.403231 
L 388.101156 64.589771 
L 378.351183 47.68888 
L 378.046932 36.654924 
L 359.158267 28.941453 
L 348.290741 38.314325 
L 308.008311 35.24062 
L 300.837721 21.421021 
L 292.388262 21.280435 
L 274.62378 24.951008 
L 277.108442 58.871182 
L 290.430938 54.950462 
L 301.713927 51.020095 
L 318.748992 53.570644 
L 335.942212 64.119579 
L 339.028087 65.358062 
L 343.756532 69.698597 
L 324.950138 72.341388 
L 311.564205 70.234523 
L 304.995353 67.901225 
L 299.92252 68.537611 
L 294.460285 63.376303 
L 282.378403 75.149119 
L 292.913993 79.756917 
L 296.161128 92.26833 
L 283.416436 94.316209 
L 269.732646 100.698025 
L 268.691724 95.891379 
L 270.26593 83.326062 
L 268.43432 78.635952 
L 263.901843 73.890432 
L 262.041409 69.100197 
L 261.32758 63.789971 
L 238.213993 66.40769 
L 237.978282 60.820994 
L 239.219634 32.807602 
L 224.446541 21.736906 
L 201.375952 10.813307 
L 201.364059 18.596194 
L 197.771769 20.33035 
L 194.279495 23.403441 
L 193.339208 31.110055 
L 190.345855 34.001964 
L 180.01173 31.826403 
L 187.715492 49.351081 
L 190.188841 51.769886 
L 185.17469 56.355717 
L 175.302182 57.648461 
L 162.331283 60.757144 
L 161.442431 56.728281 
L 148.042079 54.522395 
L 144.158276 63.463148 
L 138.267787 58.304636 
L 131.581458 56.790788 
L 136.126209 47.304256 
L 139.817786 29.019207 
L 144.718887 15.739717 
L 126.965491 37.503116 
L 113.145294 51.504862 
L 101.288598 52.929101 
L 70.744531 79.046374 
L 12.76952 104.155286 
L 4.977194 111.574942 
L 15.575455 156.733462 
L 38.848328 168.38541 
L 68.247229 164.349653 
L 65.524524 174.480728 
L 65.934132 187.748688 
L 57.097752 195.56594 
L 67.310275 202.254865 
L 75.521214 205.774884 
L 77.562673 198.770676 
L 80.629928 186.20346 
L 86.739875 182.241147 
L 99.686206 179.017524 
L 108.08843 150.64214 
L 84.23657 165.081836 
L 82.162089 162.681992 
L 67.656308 155.446705 
L 67.377914 147.738922 
L 68.3525 143.579661 
L 50.108254 142.079562 
L 62.173285 119.517661 
L 65.186704 118.628549 
L 65.917472 118.793917 
L 64.010068 108.96 
L 68.798132 109.096133 
L 86.240452 95.445476 
L 90.791238 97.04293 
L 94.452382 88.652804 
L 103.934689 86.126558 
L 109.590447 84.819568 
L 103.369913 93.085568 
L 100.962435 104.893147 
L 94.25072 117.061766 
L 105.976994 124.426563 
L 125.591963 137.766638 
L 140.20771 138.165103 
L 152.581591 153.912443 
L 171.620541 136.963879 
L 156.148192 121.563731 
L 158.133615 117.582575 
L 155.505963 110.971971 
L 127.989147 92.872766 
L 121.322589 75.788402 
L 172.897869 72.899716 
L 180.122891 78.072063 
L 200.230257 82.633377 
L 198.021151 60.338236 
L 202.292929 40.595007 
L 210.58024 36.982677 
L 207.635898 46.463232 
L 214.376611 54.015607 
L 212.251478 63.33701 
L 213.153841 67.57458 
L 211.240953 67.521798 
L 209.104226 74.885908 
L 206.851113 85.423095 
L 205.614902 116.655122 
L 213.726508 110.141328 
L 226.543681 102.930067 
L 231.564862 93.917193 
L 244.967722 99.201338 
L 264.693929 128.957646 
L 295.833423 112.459927 
L 296.238831 110.076551 
L 306.701475 112.758598 
L 310.1074 98.218565 
L 309.950452 92.180052 
L 324.328189 105.543235 
L 326.924385 114.654922 
L 321.333134 131.398763 
L 328.724243 146.381892 
L 314.24217 151.465773 
L 315.202698 155.836187 
L 296.09488 165.172726 
L 294.062931 165.130431 
L 286.700962 190.044519 
L 267.152758 176.611098 
L 226.116262 189.05828 
L 210.641944 166.293999 
L 160.381832 204.159075 
L 179.834567 220.252825 
L 164.901671 276.850854 
L 164.485238 289.742343 
L 159.436457 305.313719 
L 114.528914 313.024649 
L 106.657185 315.416183 
L 90.37922 334.235816 
L 92.408943 309.609084 
L 97.033774 303.207821 
L 110.777542 298.834312 
L 105.907756 273.977295 
L 74.594641 278.025832 
L 73.756344 252.671681 
L 86.454585 254.215751 
L 92.540698 236.122613 
L 102.449851 221.173279 
L 93.026782 225.708374 
L 76.863352 228.163085 
L 14.342151 246.314883 
L 49.963053 283.874915 
L 42.979387 298.029503 
L 10.099424 300.916963 
L 18.973458 315.14059 
L 42.23583 331.087231 
L 39.951498 399.973783 
L 61.04233 403.012951 
L 62.999789 409.390234 
L 59.998342 413.002416 
L 39.733766 439.571766 
L 33.943221 437.301395 
L 30.831885 443.521925 
L 53.542291 457.62336 
L 53.103901 437.910507 
L 60.281744 432.329281 
L 65.488187 439.960182 
L 71.484893 457.208998 
L 79.848339 464.281379 
L 78.689487 468.623691 
L 58.094775 490.878951 
L 32.324456 481.009229 
L 32.545314 514.33911 
L 20.154812 528.35208 
L 34.108442 530.764853 
L 48.341919 537.430397 
L 83.051418 527.151839 
L 100.416637 540.665911 
L 119.517571 536.45227 
L 115.978609 524.847055 
L 100.315233 505.043165 
L 85.366885 499.411947 
L 97.18368 486.980227 
L 100.008508 487.874288 
L 104.802021 465.805679 
L 119.017412 482.223063 
L 129.986423 469.602733 
L 121.498228 450.043597 
L 110.278024 442.502815 
L 133.753902 419.214814 
L 136.361871 408.044099 
L 144.189526 423.165433 
L 149.710754 428.539425 
L 190.415544 423.126336 
L 243.716428 454.080082 
L 221.357184 481.331391 
L 235.83449 501.502201 
L 206.094412 501.927689 
L 204.012396 501.429754 
L 198.821276 504.971799 
L 188.065579 495.095664 
L 186.718905 480.329009 
L 159.327259 512.100904 
L 141.384651 509.618991 
L 144.426372 533.187389 
L 138.496262 541.761697 
L 252.524476 536.697942 
L 280.960212 534.129243 
L 282.063705 510.70258 
L 259.081228 437.609057 
L 276.79406 439.716746 
L 275.643074 423.769501 
L 287.008229 424.151966 
L 280.178653 408.572738 
L 295.411682 409.492045 
L 302.594247 407.038375 
L 310.491517 386.090374 
L 302.123882 364.553493 
L 311.169038 354.642589 
L 308.154124 330.697824 
L 335.891433 324.697298 
L 336.953703 298.331622 
L 322.559556 288.095777 
L 317.268959 246.669613 
L 344.369952 271.579465 
L 352.197107 272.847722 
L 347.700243 296.77305 
L 422.841331 297.072074 
L 425.798566 355.836216 
L 441.832636 404.170078 
L 439.064091 440.917849 
L 427.903338 409.428549 
L 402.311121 394.401862 
L 386.493678 406.823063 
L 365.846064 420.111704 
L 360.7667 351.47394 
L 343.981772 384.158783 
L 344.382563 394.877128 
L 343.209138 397.283485 
L 328.145054 412.313714 
L 314.182826 436.741601 
L 321.454965 459.209582 
L 336.635177 477.654835 
L 381.257098 548.133167 
L 381.257098 548.133167 
" clip-path="url(#p32dde8a272)" style="fill: none; stroke: #1f77b4; stroke-linecap: round"/>
   </g>
  </g>
 </g>
 <defs>
  <clipPath id="p32dde8a272">
   <rect x="0" y="0" width="443.961753" height="554.4"/>
  </clipPath>
 </defs>
</svg>
