<?xml version="1.0" encoding="utf-8" standalone="no"?>
<!DOCTYPE svg PUBLIC "-//W3C//DTD SVG 1.1//EN"
  "http://www.w3.org/Graphics/SVG/1.1/DTD/svg11.dtd">
<svg xmlns:xlink="http://www.w3.org/1999/xlink" width="558pt" height="371.323636pt" viewBox="0 0 558 371.323636" xmlns="http://www.w3.org/2000/svg" version="1.1">
 <metadata>
  <rdf:RDF xmlns:dc="http://purl.org/dc/elements/1.1/" xmlns:cc="http://creativecommons.org/ns#" xmlns:rdf="http://www.w3.org/1999/02/22-rdf-syntax-ns#">
   <cc:Work>
    <dc:type rdf:resource="http://purl.org/dc/dcmitype/StillImage"/>
    <dc:date>2025-10-02T12:07:36.485674</dc:date>
    <dc:format>image/svg+xml</dc:format>
    <dc:creator>
     <cc:Agent>
      <dc:title>Matplotlib v3.8.3, https://matplotlib.org/</dc:title>
     </cc:Agent>
    </dc:creator>
   </cc:Work>
  </rdf:RDF>
 </metadata>
 <defs>
  <style type="text/css">*{stroke-linejoin: round; stroke-linecap: butt}</style>
 </defs>
 <g id="figure_1">
  <g id="patch_1">
   <path d="M 0 371.323636 
L 558 371.323636 
L 558 0 
L 0 0 
z
" style="fill: #ffffff"/>
  </g>
  <g id="axes_1">
   <g id="line2d_1">
    <path d="M 283.726201 211.949658 
L 282.124568 211.115122 
L 281.647042 212.636315 
L 278.58987 213.280552 
L 277.977876 217.229936 
L 276.664525 220.680388 
L 276.39735 220.938883 
L 276.931563 221.054773 
L 277.935548 221.958721 
L 280.896965 223.98529 
L 281.991328 226.282491 
L 285.334408 225.909721 
L 286.610937 223.546253 
L 285.849896 221.106994 
L 284.443854 217.187508 
L 290.414298 205.91914 
L 290.946634 205.820742 
L 290.475617 205.287533 
L 289.258188 202.920719 
L 289.661719 202.454972 
L 289.919681 200.728554 
L 286.843458 203.744926 
L 284.087104 202.613515 
L 284.724878 202.06426 
L 285.720109 198.654282 
L 288.212949 198.522155 
L 288.338611 198.227072 
L 288.458767 194.795345 
L 285.864672 195.476425 
L 285.383499 195.911714 
L 283.686732 197.843824 
L 283.452907 197.076235 
L 284.661791 195.605825 
L 284.97144 192.814675 
L 287.085847 191.62811 
L 289.411323 191.998383 
L 290.136009 190.823768 
L 290.702442 190.849759 
L 289.378001 188.761588 
L 289.107877 188.797864 
L 287.586449 188.224707 
L 286.023033 189.453247 
L 286.195029 187.387763 
L 289.643951 186.993772 
L 291.73377 186.037071 
L 291.27492 183.40975 
L 293.851727 184.137426 
L 295.204641 185.207565 
L 296.797712 185.818006 
L 297.299994 185.046781 
L 296.764229 183.892842 
L 296.748595 182.449037 
L 298.403326 181.177338 
L 299.230406 182.564934 
L 302.307335 181.629241 
L 303.146083 181.090932 
L 304.762703 172.182259 
L 306.726267 170.546444 
L 309.75273 171.024686 
L 309.938576 170.753982 
L 311.701006 171.154181 
L 312.675591 170.609229 
L 313.190649 172.065214 
L 313.154423 173.212096 
L 312.751852 174.011903 
L 312.425922 173.361831 
L 311.708366 172.979031 
L 311.651091 172.189 
L 311.112319 172.2433 
L 310.500588 172.176968 
L 310.504638 172.40201 
L 310.210236 172.957523 
L 309.905883 173.124959 
L 309.85806 173.382495 
L 310.725408 174.674893 
L 312.308417 174.925531 
L 310.899092 175.686968 
L 307.570975 176.198381 
L 306.786577 175.910634 
L 310.959417 181.363274 
L 313.218278 181.083848 
L 314.411355 184.609526 
L 314.263579 184.942704 
L 309.918407 185.116222 
L 312.387206 195.731833 
L 311.202585 195.828147 
L 310.899192 195.549455 
L 309.599516 196.18221 
L 308.609629 195.491741 
L 306.375273 196.159615 
L 302.560515 195.33118 
L 302.068219 196.15595 
L 301.340952 195.649715 
L 299.442 192.948151 
L 297.121019 191.141343 
L 296.076882 194.800734 
L 294.938631 193.228164 
L 294.216234 193.223094 
L 293.555335 193.031095 
L 292.075757 197.708216 
L 294.035436 198.799693 
L 295.731771 201.684888 
L 295.849573 202.746312 
L 297.105753 203.431891 
L 297.491834 205.735844 
L 295.799054 207.750203 
L 294.8654 209.571366 
L 298.058655 208.755237 
L 299.528359 207.518304 
L 298.479487 210.614201 
L 301.171328 210.060749 
L 305.169863 211.213405 
L 305.771917 211.903196 
L 304.581177 213.273947 
L 306.40085 213.268827 
L 306.599225 211.454695 
L 306.813506 211.361187 
L 307.297159 210.226793 
L 309.773633 214.084318 
L 310.588156 213.86919 
L 311.067033 212.531513 
L 311.471532 213.630942 
L 312.027324 213.426236 
L 312.882107 214.811933 
L 313.402768 214.381713 
L 313.851483 213.227468 
L 316.105553 211.43714 
L 316.107127 211.167498 
L 319.109648 214.791768 
L 319.926953 214.13317 
L 322.979637 217.060168 
L 326.017866 218.407133 
L 330.991337 210.500653 
L 336.061712 212.665974 
L 336.345168 212.052012 
L 336.806929 211.610256 
L 338.643685 210.67312 
L 338.343004 208.833087 
L 340.277066 205.981666 
L 338.946127 206.048304 
L 339.105761 202.296907 
L 340.00108 201.28389 
L 338.092912 200.992058 
L 334.517415 208.134543 
L 333.25365 208.766538 
L 333.990394 206.140211 
L 334.019075 204.041228 
L 333.282749 203.019955 
L 332.214431 203.434327 
L 331.407118 204.804488 
L 329.729775 204.537452 
L 326.888979 202.639418 
L 326.974403 202.143869 
L 329.552827 198.678116 
L 322.330276 197.27794 
L 321.775767 199.407713 
L 321.549966 199.292091 
L 321.43165 198.778782 
L 320.173967 198.750144 
L 319.013771 193.088012 
L 315.829621 187.420457 
L 316.506949 186.897717 
L 317.538948 187.013359 
L 323.021979 187.077651 
L 323.010264 186.569109 
L 322.007018 184.540509 
L 322.831988 184.051714 
L 322.850065 181.919201 
L 326.370182 181.400839 
L 326.741148 182.888759 
L 326.006122 185.715165 
L 326.263657 188.411869 
L 326.717099 190.71909 
L 326.96291 190.121956 
L 328.235331 188.257539 
L 329.328046 189.820256 
L 331.181412 192.159879 
L 333.019288 192.994893 
L 333.105113 191.262027 
L 333.472671 187.559193 
L 332.424012 185.505512 
L 330.0905 185.837136 
L 329.651446 185.628133 
L 328.204635 184.336039 
L 329.685217 183.549218 
L 330.281209 181.347672 
L 330.051096 180.864346 
L 331.048836 178.567065 
L 333.323976 179.383012 
L 333.313757 178.173519 
L 332.907475 176.63357 
L 331.769778 176.062416 
L 330.874272 175.043771 
L 330.049586 176.567447 
L 329.351282 176.26552 
L 329.583515 177.059062 
L 328.478364 177.654329 
L 328.298201 178.876993 
L 327.356786 178.756883 
L 326.242995 176.987946 
L 323.507306 177.464837 
L 324.692797 179.577672 
L 323.25295 179.918377 
L 321.910019 178.977317 
L 320.992599 179.08056 
L 321.046725 176.92028 
L 318.467938 177.340832 
L 316.550052 176.413024 
L 316.601254 176.598686 
L 316.051051 177.677446 
L 315.610632 176.942213 
L 314.043535 176.57971 
L 314.274954 176.295359 
L 313.816021 175.542382 
L 314.226576 175.194223 
L 314.253408 173.787815 
L 314.604062 173.26444 
L 314.847211 172.525438 
L 318.403877 172.868983 
L 318.006422 172.633471 
L 314.026315 170.464206 
L 304.179093 159.128671 
L 303.300215 159.271302 
L 302.055878 159.200694 
L 302.039292 160.052858 
L 303.036613 161.150653 
L 301.972638 161.841564 
L 302.293196 162.586879 
L 299.814418 162.877434 
L 298.381481 163.602011 
L 298.027652 164.476816 
L 298.918029 168.09043 
L 299.368813 168.191675 
L 300.310482 173.821657 
L 298.328109 172.165554 
L 298.106799 172.455452 
L 297.590963 171.958026 
L 296.44051 171.934903 
L 297.954614 170.520782 
L 298.350287 169.597063 
L 298.129941 168.341681 
L 296.723444 168.3106 
L 296.656046 164.504714 
L 296.800882 164.35721 
L 297.540024 163.442165 
L 297.638885 162.577878 
L 298.343055 161.865731 
L 301.583351 159.399902 
L 301.286038 159.05349 
L 302.647413 156.402626 
L 304.725314 158.172085 
L 305.727217 157.365049 
L 307.59064 157.925933 
L 309.862811 158.177322 
L 310.096769 157.658703 
L 309.188845 144.018302 
L 310.264122 142.777856 
L 312.107372 142.061211 
L 312.999324 141.065417 
L 313.047792 140.392987 
L 327.323889 140.731237 
L 329.961085 137.880932 
L 330.036969 137.415775 
L 333.668838 139.172843 
L 336.14915 138.62253 
L 335.946088 140.763871 
L 337.212046 140.604598 
L 337.90532 140.167449 
L 337.822045 140.756868 
L 338.156062 142.830305 
L 338.738818 143.808518 
L 340.600508 142.766822 
L 339.894798 144.067393 
L 340.448891 146.211013 
L 340.0976 146.745235 
L 339.769962 145.402103 
L 338.320168 144.678927 
L 337.5666 145.989858 
L 337.717363 147.720573 
L 338.08888 147.946959 
L 340.191639 147.305833 
L 341.216351 148.237145 
L 341.169015 148.750564 
L 341.963655 148.962124 
L 341.659855 147.392223 
L 341.634928 145.416662 
L 342.369048 145.566768 
L 344.308051 147.235766 
L 341.436631 152.212205 
L 346.740216 154.38034 
L 348.509648 159.220009 
L 349.206407 152.639687 
L 350.148761 152.612991 
L 351.128874 150.402631 
L 352.49645 150.820691 
L 353.965981 149.731191 
L 353.1868 148.338356 
L 354.811865 148.609457 
L 354.586322 147.222661 
L 355.189309 145.878191 
L 356.102156 146.0765 
L 355.506975 144.824945 
L 354.684007 145.061697 
L 354.566281 144.935443 
L 353.14039 145.614089 
L 351.342297 144.060904 
L 351.362961 142.189884 
L 352.989429 142.360052 
L 353.935347 143.242798 
L 353.643648 143.46837 
L 353.557882 144.378979 
L 354.392998 143.48758 
L 354.321725 143.291158 
L 355.892634 141.192306 
L 356.963645 141.039512 
L 354.507539 138.327179 
L 358.72923 133.743293 
L 358.589279 132.543382 
L 357.817615 132.85605 
L 357.637217 131.903271 
L 358.324495 129.795176 
L 357.595265 129.387923 
L 356.779688 129.637101 
L 356.031648 129.459703 
L 355.812289 128.950326 
L 356.420961 129.266644 
L 357.026882 128.686463 
L 357.41087 128.563308 
L 357.961156 128.685006 
L 358.081318 128.496558 
L 358.258039 127.393667 
L 356.564493 124.507903 
L 356.472652 124.969248 
L 355.359531 125.729894 
L 355.696337 126.931044 
L 355.0793 126.968885 
L 354.055117 126.790134 
L 353.603451 128.140511 
L 352.417155 125.986494 
L 351.801433 125.574395 
L 351.490852 123.795053 
L 353.455462 122.896756 
L 355.306765 122.40012 
L 355.797059 121.628036 
L 355.993653 121.641509 
L 357.033951 120.675109 
L 356.180911 120.789376 
L 355.214946 120.071535 
L 351.085908 122.456693 
L 350.360479 122.716879 
L 349.729665 122.177052 
L 346.622934 123.349075 
L 347.525217 123.569497 
L 349.499823 123.86247 
L 350.527152 127.543055 
L 351.622118 128.039782 
L 350.009033 128.3879 
L 348.092233 127.907502 
L 349.369505 130.263181 
L 347.089834 130.2484 
L 346.33888 129.296391 
L 344.611696 128.701003 
L 343.027505 129.498026 
L 343.992482 130.505384 
L 345.128801 131.007935 
L 344.865367 131.614384 
L 346.099088 131.643212 
L 347.597582 131.170959 
L 348.823019 131.093753 
L 351.114903 132.82603 
L 351.262455 136.167855 
L 350.447775 136.611301 
L 347.748461 140.972082 
L 347.816119 141.168787 
L 346.188162 144.875514 
L 346.328505 145.790293 
L 345.089863 145.517453 
L 344.813071 145.82948 
L 344.364852 145.404031 
L 344.076924 144.934301 
L 343.422738 144.807459 
L 343.544233 144.352267 
L 345.420862 144.175919 
L 344.415374 140.84479 
L 343.538836 141.830091 
L 341.707339 140.406596 
L 340.315426 137.517569 
L 340.790284 137.38654 
L 343.099093 131.812857 
L 341.76797 130.629842 
L 341.035895 130.229326 
L 338.353572 131.708244 
L 336.76548 133.471051 
L 335.959658 133.700253 
L 334.677687 133.687951 
L 333.135682 132.939904 
L 336.992984 126.872218 
L 338.886846 125.475556 
L 339.407529 124.073559 
L 340.715605 125.551473 
L 341.778115 125.004128 
L 344.121838 124.015719 
L 344.302794 125.136634 
L 344.658205 125.638111 
L 345.527179 125.180407 
L 345.306256 126.580026 
L 343.141196 127.450947 
L 342.12859 128.067059 
L 341.559864 127.791687 
L 341.420056 128.360934 
L 338.189321 128.441386 
L 337.772825 129.534897 
L 337.386453 131.056248 
L 335.929864 131.389945 
L 335.353807 130.89437 
L 335.436905 128.119356 
L 332.414274 131.987255 
L 331.567427 132.511464 
L 325.07605 136.000954 
L 308.564179 133.629059 
L 308.042186 133.403303 
L 305.746238 131.426831 
L 304.568865 128.417192 
L 305.060925 126.886381 
L 305.319241 127.519813 
L 306.488833 128.013047 
L 307.068144 128.015745 
L 307.577845 125.412024 
L 306.374871 126.598055 
L 302.22081 125.676884 
L 299.790637 123.726084 
L 299.391611 123.78969 
L 297.206167 122.513744 
L 293.642799 121.673782 
L 287.011781 124.051456 
L 287.19006 124.748798 
L 284.407687 128.326517 
L 283.975933 128.388741 
L 282.424529 129.553955 
L 284.097597 125.301129 
L 284.987695 124.166329 
L 287.826258 115.983819 
L 285.873913 117.335565 
L 284.676036 116.998719 
L 284.430664 117.059095 
L 283.099484 114.41399 
L 276.725929 114.007975 
L 277.802417 115.247113 
L 276.239214 116.057422 
L 269.295827 117.814885 
L 268.410814 117.118489 
L 266.696093 119.604925 
L 266.706175 120.389807 
L 262.473794 117.861512 
L 261.679708 117.789429 
L 262.918029 115.9471 
L 260.222646 113.181355 
L 262.163979 109.922605 
L 262.347121 109.084067 
L 271.05836 109.008995 
L 269.691713 113.300735 
L 267.317649 110.86921 
L 266.91037 111.133497 
L 266.733994 112.191257 
L 265.375339 111.552362 
L 265.035946 107.923745 
L 267.85491 102.912769 
L 277.447909 88.820005 
L 305.990778 119.642345 
L 299.867294 121.252282 
L 302.140479 122.811658 
L 303.947728 121.711731 
L 302.562054 120.710488 
L 302.586193 120.053398 
L 303.202782 118.626773 
L 302.611728 118.12352 
L 301.450463 118.392731 
L 300.413062 117.692505 
L 301.019777 117.03806 
L 301.196656 116.472903 
L 299.754746 114.377061 
L 299.762306 114.078905 
L 298.199287 114.651247 
L 298.097543 114.008104 
L 298.000052 115.786761 
L 296.937902 116.666481 
L 298.083978 117.48374 
L 297.326052 118.775553 
L 299.413979 119.533324 
L 298.687225 120.981218 
L 297.768542 121.519219 
L 296.783342 121.127345 
L 293.99258 119.210516 
L 293.243378 120.252685 
L 290.697752 119.388283 
L 290.815817 118.221916 
L 289.896412 117.203865 
L 289.476679 117.54869 
L 291.405281 116.95153 
L 293.865653 117.870564 
L 294.629523 117.304152 
L 295.290287 115.642209 
L 295.832922 115.237169 
L 295.454301 114.617478 
L 296.220676 114.492657 
L 296.251188 113.681954 
L 294.6817 112.607253 
L 293.852562 115.104541 
L 291.998992 113.884481 
L 291.094926 113.515194 
L 289.863933 113.96451 
L 289.070432 113.261488 
L 288.36118 112.820368 
L 287.570227 114.178697 
L 286.475453 114.551235 
L 286.186759 112.322707 
L 286.919466 111.567321 
L 287.222988 111.486861 
L 285.745718 110.896158 
L 285.02035 110.413517 
L 284.527111 111.389347 
L 282.74765 111.663087 
L 283.218791 113.215293 
L 283.825817 113.907478 
L 284.327689 114.10088 
L 285.046853 113.701184 
L 283.805372 108.452212 
L 282.014931 107.487156 
L 280.668128 111.05119 
L 277.647094 111.982913 
L 277.187369 111.496353 
L 274.007055 111.512831 
L 274.170518 110.281378 
L 275.650908 109.464784 
L 276.916856 107.895256 
L 277.20758 105.822557 
L 279.491715 101.238009 
L 282.119841 99.789915 
L 284.028838 102.362989 
L 289.569623 97.725827 
L 287.4385 89.799683 
L 285.730129 85.091812 
L 286.676325 84.301999 
L 283.977216 81.829667 
L 282.353005 81.272896 
L 281.251133 80.619126 
L 277.428892 79.362554 
L 277.877694 76.135908 
L 275.767267 70.051253 
L 277.088366 49.165302 
L 293.298625 45.347395 
L 293.639722 45.922302 
L 295.874155 48.221382 
L 300.237432 42.171792 
L 311.473076 48.580632 
L 314.636014 52.572667 
L 315.510389 50.678832 
L 315.290792 50.460329 
L 313.46272 49.422218 
L 319.761942 40.142582 
L 317.930235 40.004896 
L 316.973108 38.507576 
L 311.118045 35.523106 
L 296.064837 15.070089 
L 294.631486 15.354654 
L 294.631672 14.30661 
L 293.733134 14.397946 
L 293.733273 14.704638 
L 292.574813 15.202129 
L 288.309396 17.288993 
L 290.006377 21.237899 
L 287.92719 26.658322 
L 285.424464 26.425176 
L 284.45167 34.197103 
L 288.841836 32.11433 
L 292.090766 32.54121 
L 293.17018 31.316481 
L 294.488581 31.58042 
L 298.271591 25.484386 
L 299.54156 21.941626 
L 308.156194 21.936246 
L 307.422134 26.948789 
L 309.06357 28.00222 
L 308.054236 29.710514 
L 305.390307 31.75344 
L 305.107679 38.037894 
L 304.686501 41.697034 
L 305.570106 43.146475 
L 309.717911 42.472352 
L 312.076855 44.848799 
L 312.861182 44.459178 
L 315.141271 46.104809 
L 317.930401 45.497714 
L 323.790265 44.597856 
L 322.378682 43.955564 
L 323.101006 41.358836 
L 322.770665 39.992207 
L 323.062867 40.192608 
L 323.040131 39.926169 
L 323.130038 39.5716 
L 332.463844 30.454047 
L 332.446121 30.971288 
L 335.058478 33.350983 
L 334.459761 32.729405 
L 334.793729 32.513757 
L 335.322095 32.510047 
L 335.858956 32.97021 
L 335.749788 33.481284 
L 335.920733 34.477846 
L 334.972176 34.567716 
L 333.662232 34.446343 
L 333.29378 33.760718 
L 333.106961 32.51143 
L 331.794775 32.903922 
L 331.297481 35.29805 
L 332.408828 36.374676 
L 332.811784 36.29023 
L 335.691481 40.395006 
L 335.729245 41.250711 
L 334.563715 47.560637 
L 335.775806 50.029026 
L 338.586629 48.553312 
L 339.970659 50.661433 
L 341.93952 53.055319 
L 338.289395 58.331359 
L 338.159376 61.759971 
L 337.438322 70.741076 
L 344.292111 45.503467 
L 329.51904 66.148361 
L 329.247073 66.934022 
L 326.831844 66.36795 
L 327.904069 66.112591 
L 327.125569 65.063174 
L 322.797876 63.674218 
L 323.155652 63.641517 
L 324.910701 63.973647 
L 327.030618 56.586701 
L 329.002017 59.535763 
L 331.349829 56.10384 
L 331.55359 54.813553 
L 331.623682 53.363627 
L 328.679898 49.740467 
L 329.628454 49.533327 
L 331.368027 48.217945 
L 329.603696 44.433511 
L 331.602835 40.996716 
L 332.614699 40.550418 
L 333.48892 39.280066 
L 335.239094 37.353819 
L 334.900924 36.451688 
L 335.321517 35.83008 
L 335.674305 35.512753 
L 337.393507 36.596811 
L 337.476724 37.53732 
L 337.660008 37.677048 
L 338.158768 38.241252 
L 337.671408 38.797109 
L 339.33759 40.991326 
L 339.070826 41.597827 
L 339.138949 42.17241 
L 337.458845 42.517503 
L 336.977136 43.904251 
L 336.987886 45.75182 
L 339.758428 45.892961 
L 339.966171 43.976823 
L 342.39223 45.970885 
L 342.088854 45.831209 
L 341.004196 46.74104 
L 341.576522 47.001259 
L 341.745408 47.319169 
L 341.679524 48.705273 
L 343.15194 48.534372 
L 343.861126 48.984258 
L 344.445017 50.618828 
L 343.776733 50.71834 
L 343.187239 51.948497 
L 343.470183 52.135943 
L 343.848076 51.930743 
L 344.605311 52.430027 
L 343.737635 53.552613 
L 343.831381 53.66802 
L 343.655686 54.405613 
L 342.821849 55.07026 
L 341.940657 54.696143 
L 340.519402 55.437793 
L 339.375978 55.561897 
L 339.416123 56.728537 
L 339.307744 57.575055 
L 341.296516 59.953548 
L 348.749795 68.341977 
L 344.213956 66.250149 
L 341.997523 67.709024 
L 341.010702 69.919399 
L 341.468561 69.637114 
L 342.567755 69.242857 
L 343.963169 70.94151 
L 342.991998 70.583807 
L 341.85964 72.79566 
L 349.119414 83.300861 
L 350.364997 82.672451 
L 350.38136 80.536418 
L 350.607839 80.853048 
L 350.011199 81.047554 
L 349.252552 80.782101 
L 349.33474 80.562656 
L 349.116032 80.258295 
L 347.853994 75.144193 
L 346.977855 75.681702 
L 345.277042 74.493154 
L 345.119059 74.038972 
L 345.226905 73.167274 
L 346.947338 73.008681 
L 347.985599 72.751138 
L 347.146561 71.138226 
L 346.208998 71.670375 
L 346.276443 70.922706 
L 345.024408 69.904348 
L 345.598475 68.959944 
L 346.141666 67.395728 
L 346.965759 64.394104 
L 345.323789 64.462259 
L 345.370413 61.902872 
L 345.30227 62.034629 
L 345.209331 62.746953 
L 345.578896 64.012396 
L 346.215022 64.301909 
L 346.354421 63.649853 
L 346.734543 62.443032 
L 346.096774 62.088312 
L 346.227167 61.308615 
L 345.610676 60.591175 
L 346.376451 57.758575 
L 346.65147 55.399842 
L 345.350712 54.999945 
L 345.893126 55.928804 
L 344.569874 56.774739 
L 343.472801 57.173388 
L 343.885845 57.431977 
L 343.410586 58.288954 
L 343.374204 59.77264 
L 342.36222 61.988395 
L 341.910361 63.996513 
L 340.074863 65.639866 
L 339.885661 67.110239 
L 338.061531 68.744916 
L 336.746668 66.644943 
L 336.513392 66.594322 
L 336.428642 67.411362 
L 334.034281 67.723491 
L 331.859358 67.309743 
L 333.097983 65.403767 
L 332.184018 63.697638 
L 330.331808 61.958996 
L 329.462418 62.514356 
L 327.011437 63.456457 
L 325.677071 61.588457 
L 325.701271 61.002085 
L 326.357569 58.922498 
L 324.755056 57.708066 
L 320.14866 54.509191 
L 322.666561 55.777983 
L 321.736593 55.573828 
L 320.101889 58.075663 
L 321.441894 60.21805 
L 317.452769 62.450128 
L 317.435613 63.180928 
L 317.674589 63.244808 
L 319.83416 64.412864 
L 318.47363 64.471549 
L 317.734584 64.37707 
L 306.782156 68.290527 
L 308.09908 68.926365 
L 310.175234 64.460875 
L 309.379114 57.740442 
L 310.940912 60.403637 
L 311.148543 59.008975 
L 311.658585 56.678018 
L 313.636974 57.028965 
L 315.584105 55.327662 
L 316.489891 57.429352 
L 316.36369 57.715498 
L 315.845303 59.209267 
L 313.781957 59.241602 
L 314.387086 61.579877 
L 312.805918 62.8467 
L 312.243297 61.347744 
L 311.06706 62.627212 
L 311.193945 62.391666 
L 310.410353 61.952099 
L 308.481944 61.650989 
L 308.476311 61.14883 
L 308.892731 61.192274 
L 308.878412 59.930203 
L 309.112408 59.590053 
L 308.454805 58.678439 
L 307.83124 58.962677 
L 307.357222 57.158356 
L 307.980052 52.242457 
L 307.482349 49.676325 
L 302.812346 47.88265 
L 301.927137 51.811511 
L 302.413596 56.215512 
L 300.707819 58.89791 
L 302.725638 59.173995 
L 303.073859 58.823799 
L 304.499916 58.043868 
L 305.390657 62.344639 
L 304.568476 61.846375 
L 301.4154 64.905221 
L 294.793953 66.974551 
L 292.861082 78.332699 
L 289.694545 77.330498 
L 287.797978 72.71643 
L 282.653012 67.999869 
L 279.801324 66.196983 
L 280.853784 66.592048 
L 282.749498 62.565809 
L 278.978552 56.495644 
L 280.130818 56.567056 
L 279.641053 57.756226 
L 279.72711 59.183897 
L 274.339482 61.938192 
L 273.311862 62.02191 
L 272.76633 65.17365 
L 266.16601 72.448279 
L 257.989316 66.689997 
L 261.035296 67.222262 
L 260.289165 66.434856 
L 259.770834 64.609478 
L 259.806565 62.658441 
L 258.202582 62.258752 
L 257.992057 54.61061 
L 260.160616 57.463622 
L 260.036733 55.718732 
L 260.535703 53.401151 
L 264.139026 42.466248 
L 266.315524 39.928224 
L 267.866365 35.906017 
L 275.768501 39.101636 
L 274.708056 35.062972 
L 276.606858 34.991443 
L 276.63026 35.454263 
L 279.381138 36.488421 
L 279.665388 35.411938 
L 281.249078 33.821823 
L 282.485648 29.931475 
L 280.026903 30.368783 
L 279.842603 27.717695 
L 276.532637 29.01238 
L 274.553751 30.661065 
L 274.591013 30.355247 
L 267.853956 27.51686 
L 269.416914 26.621167 
L 268.952063 17.576376 
L 265.960445 12.703602 
L 266.381109 13.170392 
L 265.955152 14.111363 
L 266.047711 14.461059 
L 268.942509 14.630971 
L 274.206387 14.783535 
L 273.352458 13.89607 
L 271.973584 15.489837 
L 272.198555 15.47771 
L 272.885761 17.673121 
L 273.681609 18.010672 
L 273.725747 16.960168 
L 274.630865 16.095316 
L 274.782917 15.728168 
L 276.131848 16.306875 
L 277.293543 13.532982 
L 277.211438 12.971739 
L 275.590597 13.428542 
L 275.535175 13.222347 
L 274.459485 12.179432 
L 274.637542 12.320631 
L 274.203285 12.770652 
L 273.050211 12.515303 
L 270.788659 12.968701 
L 270.428127 12.627751 
L 268.876371 12.191715 
L 268.208746 12.608472 
L 268.268531 13.389098 
L 267.69439 14.502245 
L 267.59471 16.126014 
L 266.494686 17.19823 
L 265.237307 18.239635 
L 265.009777 17.450242 
L 264.084703 18.007324 
L 263.237265 16.818731 
L 263.137703 15.62827 
L 263.255158 15.423366 
L 262.502254 14.431275 
L 261.42001 16.098014 
L 259.876394 15.523651 
L 259.12531 15.114063 
L 257.939208 16.201801 
L 257.988728 16.966386 
L 257.408806 16.864551 
L 256.273193 17.316842 
L 256.358091 18.654998 
L 248.902687 23.531141 
L 250.72526 23.298413 
L 250.610569 21.954894 
L 251.525462 21.226961 
L 253.611891 20.654868 
L 252.649739 19.931794 
L 253.037525 19.673626 
L 254.039015 19.670893 
L 254.698851 18.158018 
L 253.188216 17.888956 
L 252.788201 18.71681 
L 251.176821 18.202635 
L 251.092252 17.463383 
L 248.163408 17.607789 
L 249.53066 17.12577 
L 248.965888 17.417854 
L 249.29346 18.498799 
L 250.171625 18.586326 
L 249.965253 19.444232 
L 249.495335 20.055519 
L 249.659714 20.271886 
L 249.156934 20.909913 
L 248.232097 21.0887 
L 246.868615 19.823719 
L 246.009843 18.82533 
L 245.901186 19.525639 
L 228.996578 31.768978 
L 228.656016 31.521525 
L 229.275805 30.755138 
L 229.204287 29.627199 
L 230.189885 29.801369 
L 234.835688 31.645622 
L 233.493945 32.386191 
L 233.845576 32.914116 
L 232.077503 34.194108 
L 230.410235 34.88989 
L 227.399429 38.883382 
L 220.499356 36.972515 
L 218.242029 41.431874 
L 220.566 44.315517 
L 223.954981 43.253837 
L 226.813647 46.838092 
L 225.33375 51.898954 
L 227.82352 54.407985 
L 233.175624 65.955427 
L 235.291406 64.864096 
L 239.433365 61.226298 
L 247.73629 62.683442 
L 248.821587 67.193432 
L 245.274417 67.417782 
L 242.613429 68.614248 
L 242.107038 67.426463 
L 239.506395 67.064717 
L 238.443775 68.443667 
L 237.079097 67.521638 
L 236.862865 68.323596 
L 234.37328 70.539155 
L 211.345072 79.118169 
L 206.216987 71.509685 
L 199.074435 61.672247 
L 195.134405 71.29277 
L 195.646098 71.517816 
L 196.136165 72.624765 
L 196.027328 73.554125 
L 197.506615 74.317166 
L 195.775587 79.304188 
L 195.279325 83.63473 
L 194.947672 84.331489 
L 195.310569 84.661733 
L 203.188902 86.250945 
L 204.051433 82.654867 
L 207.12278 81.865087 
L 209.415634 82.51094 
L 212.124691 87.747998 
L 219.966843 84.129787 
L 218.555741 77.635396 
L 219.468395 75.876385 
L 220.017676 70.430759 
L 215.255822 64.965051 
L 217.470781 61.560654 
L 220.24375 60.595725 
L 226.563738 62.511404 
L 228.535528 63.740199 
L 228.176855 69.449873 
L 230.090912 72.128606 
L 230.379623 74.0413 
L 232.979985 73.798701 
L 235.742733 74.539328 
L 233.901924 75.978609 
L 233.216158 80.770333 
L 232.297365 81.590081 
L 226.500631 80.427057 
L 228.165965 81.156873 
L 226.539907 82.894912 
L 223.24726 82.613101 
L 224.237943 83.742577 
L 223.695226 84.456862 
L 224.066284 84.502062 
L 225.223057 86.335288 
L 231.002784 87.980799 
L 231.847285 88.871602 
L 230.243277 90.252209 
L 227.857428 93.115708 
L 226.375828 93.832031 
L 224.327392 95.081107 
L 222.730732 95.175696 
L 214.697255 96.678429 
L 216.863505 108.509155 
L 216.553087 103.038278 
L 216.924553 100.643439 
L 217.905057 100.28177 
L 216.958769 98.257686 
L 217.672077 95.776248 
L 217.748493 93.546558 
L 218.095241 93.270689 
L 219.122424 93.348696 
L 220.033567 92.16004 
L 221.142829 92.107222 
L 220.765595 91.777528 
L 219.788892 88.657349 
L 217.639882 87.174504 
L 216.237499 89.564394 
L 213.250607 92.041252 
L 209.484306 93.855756 
L 208.513335 92.728059 
L 208.831824 89.583359 
L 207.426873 89.036823 
L 206.755582 90.254876 
L 205.85268 91.219585 
L 200.518559 95.473399 
L 197.564783 92.426413 
L 193.210302 94.551063 
L 193.79845 94.557378 
L 193.514501 94.745806 
L 195.637465 97.74737 
L 192.742653 104.799311 
L 192.114451 104.634818 
L 191.70097 104.911279 
L 191.530035 104.2427 
L 190.490601 104.652229 
L 190.296113 103.361029 
L 188.844569 102.931631 
L 188.913173 102.084741 
L 191.429134 100.54662 
L 193.46373 99.840854 
L 193.202147 99.800802 
L 192.491857 99.9372 
L 192.471843 98.739133 
L 191.805865 99.335808 
L 191.088402 99.578672 
L 190.902831 98.161163 
L 191.611044 97.245093 
L 192.366496 97.635544 
L 192.857835 96.51296 
L 191.760775 95.662951 
L 190.884114 95.285836 
L 190.69446 92.713595 
L 189.405016 92.404635 
L 190.006232 92.064218 
L 189.723372 89.993109 
L 191.242165 90.519551 
L 193.037667 90.402895 
L 192.170494 89.00656 
L 193.20271 87.487742 
L 192.682095 87.300978 
L 192.165591 87.298883 
L 191.835417 86.881918 
L 190.975555 83.957225 
L 190.953056 84.247955 
L 191.244382 84.405064 
L 192.017397 85.464159 
L 193.278804 85.474323 
L 192.848993 84.728431 
L 192.701453 85.031521 
L 192.115202 84.769788 
L 192.414882 83.780944 
L 191.931491 83.485832 
L 192.625301 82.514038 
L 193.116245 82.503988 
L 194.654332 81.142877 
L 194.167754 81.941691 
L 194.001432 81.489234 
L 193.317848 80.180267 
L 192.68933 79.421333 
L 192.909279 79.244746 
L 192.869053 78.273 
L 193.132815 77.564427 
L 194.103772 77.674189 
L 195.669975 77.197638 
L 195.638965 77.021839 
L 196.591314 76.153822 
L 197.694381 76.205897 
L 198.912227 77.523369 
L 201.802816 74.389792 
L 199.929937 72.478543 
L 199.132963 72.052509 
L 198.030232 71.045937 
L 197.452995 70.868604 
L 197.915966 70.144768 
L 197.943239 69.222492 
L 198.846192 69.697411 
L 199.301166 68.275296 
L 198.812888 68.5643 
L 198.106447 66.848307 
L 198.350352 65.839835 
L 199.411438 65.185786 
L 200.495064 66.000439 
L 202.348914 66.688838 
L 202.359918 64.576448 
L 201.996995 63.168147 
L 200.760982 62.514975 
L 200.812933 63.670701 
L 200.32609 63.730406 
L 200.306821 63.49368 
L 199.958902 62.804486 
L 200.064205 62.384825 
L 200.472371 61.64578 
L 200.715968 60.948222 
L 200.922178 57.214184 
L 207.502039 58.248603 
L 207.410449 50.035933 
L 205.325505 51.840335 
L 205.241555 53.248474 
L 208.289866 54.187202 
L 207.445026 55.538506 
L 207.189733 54.883596 
L 206.87389 54.494469 
L 206.392956 54.789259 
L 205.224871 56.552967 
L 204.07751 56.834153 
L 203.280699 58.222869 
L 202.561584 59.025278 
L 202.07935 59.815328 
L 204.23609 60.715134 
L 204.377259 61.244028 
L 205.774116 60.668865 
L 207.959449 63.626239 
L 209.907033 65.283263 
L 212.381001 62.906768 
L 211.529018 60.785259 
L 211.805248 57.554304 
L 213.571999 56.844469 
L 212.511395 55.184718 
L 211.421418 54.884745 
L 211.062447 54.059813 
L 212.831375 53.031885 
L 212.527278 52.133792 
L 211.723537 52.431454 
L 210.291343 51.352851 
L 210.27385 50.625926 
L 210.529081 49.650729 
L 210.257785 49.816373 
L 209.067566 49.253238 
L 209.417102 47.346503 
L 209.587028 47.662749 
L 209.459157 48.370209 
L 210.52823 48.455562 
L 212.221173 46.829863 
L 211.338837 47.695113 
L 210.575728 47.054701 
L 210.025617 45.216868 
L 209.205562 44.350409 
L 209.653748 44.438066 
L 209.659713 43.81027 
L 210.379776 43.780575 
L 210.118854 43.098468 
L 210.658349 42.936948 
L 210.585981 42.830706 
L 211.695104 41.107018 
L 212.392841 40.650685 
L 214.312646 41.494451 
L 213.479836 42.192068 
L 212.345946 42.236223 
L 212.882571 44.303171 
L 213.149623 43.7059 
L 215.572601 43.683435 
L 216.858732 42.745548 
L 216.051681 42.011169 
L 215.403112 42.149952 
L 215.590882 41.715027 
L 216.401313 40.959238 
L 217.486364 40.430432 
L 216.170104 38.202582 
L 215.177106 39.271359 
L 215.261431 39.034303 
L 215.336154 38.635125 
L 215.24496 38.112081 
L 215.512997 37.964012 
L 215.304917 37.128376 
L 215.727103 36.70043 
L 218.139375 35.189377 
L 218.429813 35.637876 
L 217.815228 35.79196 
L 217.683401 37.33846 
L 218.841245 37.738379 
L 219.796274 39.281607 
L 221.432413 40.592815 
L 221.901245 39.298435 
L 224.453544 38.374853 
L 224.926129 35.756091 
L 222.5885 35.764799 
L 222.887888 35.5856 
L 222.334645 34.198468 
L 221.393069 34.558242 
L 219.978016 34.087174 
L 220.016793 34.23155 
L 220.92992 34.105872 
L 220.982604 33.529985 
L 222.790553 32.479215 
L 224.826929 32.14197 
L 225.541034 31.056581 
L 226.892391 31.296614 
L 227.711681 30.309228 
L 228.08188 30.281899 
L 228.02032 29.57523 
L 227.433591 28.774442 
L 227.486021 28.747499 
L 227.429601 28.530963 
L 228.701006 27.296362 
L 229.880454 26.684412 
L 229.959411 27.771961 
L 230.651714 27.561171 
L 230.66594 28.102068 
L 231.105142 28.926135 
L 232.993504 29.092185 
L 232.113208 29.804928 
L 232.380962 29.274555 
L 232.183656 28.672003 
L 232.735558 27.778133 
L 232.472225 25.115011 
L 232.115361 26.414318 
L 232.145452 25.933879 
L 234.746957 26.084106 
L 236.549422 26.440294 
L 238.061752 25.433408 
L 236.827577 23.827922 
L 239.254142 22.632626 
L 239.878059 23.520161 
L 239.618511 23.990535 
L 239.712954 24.676834 
L 244.282815 27.468894 
L 242.850835 24.834124 
L 243.265249 24.264731 
L 243.995992 22.878265 
L 244.226493 20.857767 
L 244.953718 21.589633 
L 246.185746 21.678224 
L 246.908967 22.716991 
L 247.689943 23.356172 
L 246.01304 24.869251 
L 245.831509 25.529626 
L 246.730216 26.640034 
L 248.459608 26.505854 
L 250.466978 30.434862 
L 247.44612 31.508637 
L 248.096741 34.264864 
L 242.059499 36.888228 
L 244.596459 39.8787 
L 245.66303 38.317779 
L 246.742813 37.963535 
L 254.832526 39.329282 
L 254.356289 37.605929 
L 257.388947 37.05998 
L 260.918745 37.747557 
L 262.567811 31.956826 
L 262.131543 29.153397 
L 258.984883 24.179431 
L 263.039543 23.424157 
L 264.290943 24.990611 
L 267.849027 22.650432 
L 269.337179 23.660279 
L 269.692998 22.125045 
L 277.998288 23.830199 
L 278.884447 23.587659 
L 278.46218 20.221773 
L 278.164806 20.108026 
L 276.43926 18.610602 
L 278.608048 17.407053 
L 278.849264 15.408483 
L 279.315715 14.785912 
L 282.427024 12.808911 
L 280.613209 12.863345 
L 280.212473 13.280471 
L 280.033486 13.690739 
L 280.104632 14.202659 
L 281.468725 14.213278 
L 281.120365 15.336536 
L 281.977515 17.339351 
L 283.360337 15.771501 
L 285.047827 16.155535 
L 286.449209 16.269828 
L 286.344158 14.23666 
L 288.415347 14.260593 
L 288.676157 14.507369 
L 290.17513 15.403128 
L 290.745378 15.469038 
L 290.532931 15.691375 
L 291.922878 17.993017 
L 293.251893 17.422488 
L 294.534061 17.350827 
L 295.905091 17.684528 
L 296.896794 17.00162 
L 301.679506 15.188846 
L 301.708681 14.983464 
L 300.834173 14.300585 
L 301.212045 14.601582 
L 300.899156 15.245978 
L 299.811308 16.986477 
L 298.970859 17.303723 
L 298.672329 17.548294 
L 297.974104 17.081685 
L 297.667598 18.209091 
L 298.12996 19.101172 
L 299.47154 19.869806 
L 300.943985 19.923528 
L 301.580691 19.28583 
L 301.9828 19.142294 
L 301.960855 18.680001 
L 301.520593 18.020045 
L 301.756101 17.390401 
L 304.369848 16.86456 
L 305.762452 16.389886 
L 306.570755 16.287382 
L 309.765622 18.054976 
L 310.278999 17.835002 
L 310.043781 17.022946 
L 310.837288 16.367282 
L 311.063226 16.932305 
L 312.477751 16.657445 
L 314.38731 18.518319 
L 314.321798 19.998331 
L 319.120177 22.32784 
L 316.753707 27.714128 
L 319.245544 27.470816 
L 319.604489 27.258817 
L 320.890408 27.912048 
L 323.68701 28.833392 
L 322.974193 29.993911 
L 323.622886 30.418162 
L 323.576175 32.115872 
L 324.95857 31.479192 
L 325.969193 31.153596 
L 326.3334 29.703234 
L 328.143719 26.395439 
L 327.616099 26.422426 
L 327.245295 26.566326 
L 327.931502 28.409489 
L 328.480727 28.284823 
L 330.223682 28.954963 
L 328.821841 31.242196 
L 328.676672 31.835091 
L 328.703649 33.674715 
L 329.900045 33.520686 
L 330.422769 32.012809 
L 331.395349 31.584656 
L 329.722321 29.840519 
L 328.971288 29.516814 
L 327.941901 29.723279 
L 327.00051 29.330987 
L 326.872785 28.956802 
L 326.665102 27.732185 
L 325.552194 27.717739 
L 323.389486 25.252108 
L 323.579107 23.128684 
L 322.542411 23.915657 
L 322.483787 23.468337 
L 321.412401 22.739722 
L 321.648857 23.028805 
L 320.843284 24.001871 
L 319.28833 24.073061 
L 318.070199 24.423427 
L 318.347904 23.717666 
L 317.559137 22.996976 
L 317.13326 22.234722 
L 318.080849 20.550256 
L 316.877631 20.490337 
L 316.624872 20.861039 
L 315.648412 21.18432 
L 315.834889 21.789025 
L 315.574206 22.212585 
L 315.052635 24.138837 
L 314.007674 26.031313 
L 310.79524 24.645122 
L 310.53682 23.469528 
L 311.013232 23.808382 
L 312.999002 22.296994 
L 311.820398 22.166991 
L 311.31659 21.83198 
L 311.912786 20.145886 
L 311.890091 19.705265 
L 310.563495 20.05138 
L 310.280733 19.150889 
L 310.262006 19.362982 
L 308.990371 19.865639 
L 308.903003 19.081981 
L 307.952118 19.597448 
L 306.653042 18.732043 
L 308.378819 17.903425 
L 307.948434 16.90915 
L 305.402909 17.946408 
L 305.31072 18.372492 
L 304.755199 18.159071 
L 303.858557 19.07818 
L 305.3435 21.308936 
L 303.342472 22.128714 
L 304.263498 23.923059 
L 302.418049 26.253608 
L 302.165512 27.613462 
L 302.713471 28.392363 
L 302.993497 30.175327 
L 300.307334 30.263849 
L 300.869692 33.632899 
L 300.394447 34.039329 
L 297.691988 33.76695 
L 296.266419 35.420844 
L 296.25461 37.326683 
L 295.627991 37.693182 
L 293.099337 39.42396 
L 288.45724 39.738909 
L 289.679485 43.346789 
L 287.61726 44.654195 
L 284.233668 42.377393 
L 282.601498 42.75267 
L 283.265995 44.485401 
L 283.907961 48.834727 
L 286.470738 50.126066 
L 288.339766 54.624915 
L 292.575922 60.834547 
L 295.732155 60.180927 
L 296.549562 60.327234 
L 297.762445 59.707323 
L 298.858255 58.455943 
L 299.455978 56.033881 
L 294.841379 55.494334 
L 292.752565 55.538117 
L 293.414387 57.097622 
L 292.21769 57.216591 
L 290.81656 57.866898 
L 290.001659 57.331376 
L 288.752338 58.669799 
L 289.92074 60.453514 
L 288.272618 62.457631 
L 285.821449 62.762936 
L 285.035292 60.559323 
L 284.247959 61.104962 
L 282.9832 59.243106 
L 284.24131 58.712156 
L 285.119191 55.891672 
L 283.185412 54.814804 
L 281.883806 55.93802 
L 281.447284 54.535181 
L 278.935754 53.856299 
L 276.45403 54.825416 
L 276.446368 55.560403 
L 274.820991 55.944301 
L 271.482875 57.162814 
L 273.341689 57.610726 
L 272.836181 58.394783 
L 271.075026 59.081416 
L 267.719494 61.381386 
L 267.022958 63.724147 
L 263.857524 62.724679 
L 264.341107 61.663151 
L 263.893829 60.169131 
L 263.867102 59.154009 
L 265.605599 57.474189 
L 267.172306 58.973887 
L 268.890065 59.11339 
L 269.06207 58.233628 
L 267.788141 56.687344 
L 269.165125 55.125786 
L 268.511468 54.586392 
L 267.221205 53.201436 
L 264.586068 48.288392 
L 261.322058 49.043456 
L 259.318731 47.697361 
L 258.347146 44.554616 
L 257.532953 45.505109 
L 252.788543 50.280729 
L 248.755918 49.147202 
L 249.385809 46.68988 
L 247.16737 45.264538 
L 245.418615 44.704722 
L 242.550659 45.168613 
L 243.243185 44.059567 
L 243.010849 44.236365 
L 241.68432 42.701117 
L 240.136885 43.209747 
L 239.92721 44.051873 
L 237.755296 44.187263 
L 238.365394 43.784844 
L 238.591283 43.063375 
L 234.035627 40.324186 
L 234.94754 42.080998 
L 232.630966 42.700484 
L 234.146623 46.886347 
L 237.471834 51.271924 
L 240.676037 51.817858 
L 243.572136 50.562398 
L 244.10504 53.960036 
L 248.051858 57.385235 
L 250.618198 54.444706 
L 251.898127 57.965768 
L 253.874741 59.108779 
L 253.027479 62.693475 
L 251.798474 63.077617 
L 252.640871 65.244778 
L 253.95081 64.472332 
L 255.630971 64.498672 
L 256.882689 64.878516 
L 256.250479 66.17058 
L 256.340904 66.426394 
L 255.981792 68.508577 
L 257.837055 69.90478 
L 259.00079 74.301223 
L 262.523779 73.437434 
L 264.215675 86.639167 
L 255.917366 85.632537 
L 247.894289 83.801963 
L 244.435451 77.049578 
L 245.832974 75.337176 
L 247.688748 75.403224 
L 247.155428 77.987705 
L 247.583232 78.121152 
L 248.904861 77.122915 
L 251.048737 76.287402 
L 250.656498 73.537254 
L 251.973227 70.494777 
L 249.519868 70.515184 
L 246.823743 71.213131 
L 247.668758 71.852421 
L 246.742642 73.017437 
L 244.647166 73.203488 
L 244.672712 71.73809 
L 243.94347 71.525099 
L 240.84484 71.797738 
L 240.928475 72.744398 
L 241.685363 73.362822 
L 240.583078 75.631703 
L 242.046601 75.617331 
L 242.171998 77.061737 
L 241.503148 82.536873 
L 243.750394 82.623066 
L 243.620715 86.248195 
L 246.734274 91.946499 
L 248.977104 91.499696 
L 255.857316 94.054064 
L 253.723529 95.901848 
L 249.229635 106.191105 
L 251.27694 106.763819 
L 253.604535 115.627124 
L 253.325575 119.185821 
L 250.499752 120.409713 
L 250.312073 117.657839 
L 243.702208 116.186941 
L 246.985973 116.019458 
L 246.688394 119.401383 
L 235.285646 139.42236 
L 243.138346 134.31574 
L 243.109177 132.32915 
L 245.854628 131.439305 
L 248.757693 133.259874 
L 251.188872 144.701044 
L 264.83568 165.325103 
L 248.54993 175.838665 
L 250.867753 179.424122 
L 258.173192 175.831999 
L 258.452596 171.746917 
L 252.60946 167.404622 
L 249.367735 169.278538 
L 244.857546 165.199267 
L 243.499839 166.564356 
L 242.187417 171.952826 
L 241.77189 172.747925 
L 243.541186 175.966395 
L 244.670637 178.32078 
L 233.444317 185.203381 
L 227.089679 196.276424 
L 228.287406 203.783217 
L 237.88326 208.09157 
L 235.781716 205.000925 
L 239.496118 203.59755 
L 243.816117 194.218228 
L 248.143417 192.251021 
L 259.458753 189.201371 
L 259.558599 183.158248 
L 261.155057 183.465409 
L 263.233318 184.010323 
L 265.429827 179.960745 
L 265.761997 181.147423 
L 271.727857 186.912713 
L 269.871105 191.730487 
L 268.928223 191.704311 
L 269.211704 194.725246 
L 268.571248 201.122829 
L 265.324073 203.825602 
L 262.313917 198.898983 
L 263.654717 193.702521 
L 260.517921 193.341082 
L 256.441477 195.632598 
L 251.638095 199.109478 
L 249.981883 197.042158 
L 248.154008 196.480895 
L 247.03756 199.166229 
L 247.870527 200.628079 
L 246.419248 201.978651 
L 245.216777 207.305869 
L 244.119058 213.978722 
L 246.842369 211.167097 
L 249.087185 211.745603 
L 247.249149 216.355416 
L 249.743075 219.644513 
L 250.775778 222.385701 
L 255.934403 221.323272 
L 256.490284 222.888615 
L 257.981522 225.491383 
L 255.713539 225.503823 
L 253.936118 225.369002 
L 253.620633 225.860924 
L 250.900538 226.393512 
L 251.70175 228.617267 
L 251.706023 229.178811 
L 249.299642 230.099328 
L 247.573877 230.365372 
L 246.020691 229.450169 
L 243.919737 232.566686 
L 244.214671 230.884319 
L 235.757151 224.133797 
L 237.655022 227.561981 
L 235.82302 227.416808 
L 235.422286 228.387699 
L 234.78791 228.737923 
L 232.404943 228.342836 
L 231.235659 226.148322 
L 223.330581 224.200265 
L 221.599496 224.835895 
L 221.017267 231.327725 
L 225.380829 230.896744 
L 224.489151 232.724993 
L 226.147806 235.429906 
L 220.90072 236.979559 
L 215.670253 242.703944 
L 215.374196 243.218999 
L 214.198559 242.51209 
L 214.138848 242.245115 
L 213.580658 242.001454 
L 216.883519 233.255217 
L 217.829377 235.845794 
L 218.652532 237.535726 
L 219.78637 238.46063 
L 219.739026 240.293679 
L 220.989638 240.241012 
L 222.581256 243.141993 
L 222.133774 244.714014 
L 224.805281 247.637404 
L 224.583434 247.018442 
L 228.156884 245.390334 
L 229.632685 248.074923 
L 228.044237 250.411995 
L 227.915859 250.29752 
L 227.936837 248.611893 
L 226.24609 250.129477 
L 225.361419 250.284035 
L 223.943402 248.94536 
L 224.043449 248.768354 
L 223.722147 248.620078 
L 223.639729 248.283974 
L 222.152076 246.842673 
L 222.062872 246.945188 
L 220.887708 246.747831 
L 220.276572 246.097582 
L 219.299178 245.340399 
L 220.4139 243.714566 
L 218.888229 242.657274 
L 218.540673 243.274559 
L 218.197112 243.5141 
L 218.435793 243.811291 
L 218.463929 244.759314 
L 218.233513 244.614746 
L 217.769802 245.012569 
L 217.909872 244.840948 
L 217.45231 244.247822 
L 216.928691 243.13243 
L 218.234841 241.877214 
L 218.241345 241.646809 
L 216.456801 239.960318 
L 215.827791 240.871817 
L 215.580469 240.587632 
L 214.512832 240.898804 
L 214.58829 239.635544 
L 214.735947 239.254445 
L 213.860003 238.067189 
L 213.708561 238.282479 
L 209.541202 237.812782 
L 209.79549 238.83644 
L 210.508607 239.369648 
L 211.655975 239.284479 
L 211.210369 238.853015 
L 211.854372 238.318499 
L 211.561203 238.407825 
L 211.239032 237.524025 
L 211.031963 234.379413 
L 211.52847 235.205441 
L 210.706423 236.030882 
L 210.295673 236.71385 
L 209.28135 236.454996 
L 207.595585 235.796943 
L 207.955404 235.64173 
L 208.802598 235.614234 
L 208.508718 234.94646 
L 208.958038 234.486265 
L 209.135048 233.665334 
L 208.509982 233.374294 
L 208.610707 233.440105 
L 209.064305 232.869569 
L 210.517198 232.389125 
L 209.042331 228.016848 
L 209.891231 229.21743 
L 208.379756 229.568105 
L 208.045744 230.49921 
L 206.246145 231.664953 
L 206.358388 232.30244 
L 204.731723 232.615129 
L 203.777599 232.440624 
L 203.662453 232.868592 
L 203.104271 232.538854 
L 203.210654 232.204678 
L 202.948468 230.744023 
L 203.006707 230.377052 
L 204.137891 229.64853 
L 204.325782 230.557691 
L 204.946872 230.447238 
L 204.654122 230.445321 
L 204.546231 230.104581 
L 204.867452 229.409959 
L 206.11112 228.622286 
L 205.917294 226.951247 
L 207.639843 226.049752 
L 209.042627 224.719209 
L 210.535634 225.926431 
L 212.091512 225.591545 
L 216.092053 222.478402 
L 215.468693 222.591164 
L 213.049774 219.739702 
L 211.697645 217.451174 
L 212.055642 202.303218 
L 213.978859 203.780345 
L 212.782012 204.578312 
L 207.746866 206.131817 
L 205.536886 206.256046 
L 206.329311 207.08073 
L 205.261808 207.751933 
L 206.075689 209.662267 
L 208.093064 210.852858 
L 206.486358 210.694937 
L 205.331405 211.117342 
L 205.899837 212.19043 
L 205.476048 213.715606 
L 205.157791 218.902486 
L 204.059807 221.253561 
L 204.669493 221.4464 
L 204.618077 221.657745 
L 204.999481 222.831221 
L 205.976716 223.310766 
L 206.82407 223.885863 
L 208.368174 222.720735 
L 208.271421 221.151831 
L 208.039977 221.216602 
L 206.60531 221.447802 
L 205.909089 220.826475 
L 206.821801 220.757212 
L 207.403681 219.923019 
L 206.693718 218.512851 
L 207.292732 217.712861 
L 206.258133 217.092925 
L 205.516198 216.440489 
L 206.273104 215.600374 
L 207.604722 214.756216 
L 208.26781 213.926302 
L 210.908801 213.469337 
L 211.486851 210.558342 
L 210.090604 210.509428 
L 209.565573 208.815317 
L 210.843673 206.942709 
L 211.479046 205.626261 
L 210.8725 205.251513 
L 210.121393 203.422888 
L 209.345714 202.201429 
L 209.83089 200.855389 
L 210.430605 199.957446 
L 211.082715 198.659682 
L 210.681213 198.421806 
L 209.412855 195.790248 
L 211.009009 196.378065 
L 210.570382 195.964821 
L 211.357067 191.16364 
L 210.851076 192.327302 
L 213.351678 193.266198 
L 216.277287 189.23506 
L 219.959216 185.840182 
L 223.743084 184.009635 
L 219.496741 176.435104 
L 216.980194 175.770436 
L 213.216912 175.710222 
L 212.743839 174.875753 
L 215.457894 172.359727 
L 218.904105 168.957089 
L 218.866776 171.03936 
L 222.114436 172.388067 
L 224.515042 169.332194 
L 230.911992 166.907549 
L 228.147565 163.126828 
L 226.76775 165.314171 
L 226.354667 165.315488 
L 222.450548 163.122493 
L 219.838076 163.630058 
L 217.434843 160.586134 
L 222.355996 149.879848 
L 220.879887 148.88261 
L 223.74895 146.139299 
L 227.387361 147.393511 
L 234.435885 148.347679 
L 236.361411 147.496865 
L 239.776253 151.105991 
L 244.188241 146.631334 
L 242.640459 141.648235 
L 244.463462 140.808068 
L 243.853964 137.552631 
L 245.999454 136.675003 
L 249.688343 138.787981 
L 252.915779 135.700451 
L 255.172222 137.121795 
L 266.26761 141.924757 
L 266.596202 135.187703 
L 268.005254 136.177049 
L 269.998006 139.097085 
L 270.235021 140.798444 
L 271.643806 139.952295 
L 273.845992 139.716752 
L 273.015483 138.671935 
L 275.848652 137.065167 
L 276.829332 136.912385 
L 277.582373 140.230275 
L 299.107684 145.053052 
L 300.600855 143.153349 
L 299.282091 136.734971 
L 298.151799 137.454452 
L 297.244598 137.595457 
L 296.595775 136.549533 
L 294.220316 134.441618 
L 294.678464 133.177042 
L 295.523825 132.964292 
L 295.386689 133.872662 
L 297.507811 134.006906 
L 302.27395 131.704917 
L 300.170293 130.179927 
L 296.542176 128.688868 
L 294.800197 129.897175 
L 294.50669 130.84515 
L 291.283634 131.700543 
L 290.719546 131.512825 
L 289.64198 128.206501 
L 288.302053 128.580212 
L 287.122544 128.108622 
L 287.442203 129.626173 
L 285.835774 130.445852 
L 285.562476 130.181085 
L 284.430776 130.509687 
L 284.005288 135.677684 
L 283.371818 134.977928 
L 283.343015 134.345946 
L 282.435266 132.535835 
L 283.087237 132.357055 
L 283.888025 132.267769 
L 283.579529 132.616909 
L 283.426204 133.085554 
L 282.834315 133.213104 
L 282.226532 134.112484 
L 281.913133 134.781076 
L 281.779564 134.314878 
L 279.937066 134.290581 
L 280.596679 133.19523 
L 279.361062 132.921618 
L 279.21355 132.459269 
L 272.485433 129.607684 
L 272.80544 131.093898 
L 273.270646 130.378318 
L 275.04253 130.479935 
L 277.719338 126.513002 
L 278.151677 127.576331 
L 279.238108 128.104968 
L 279.068218 129.905754 
L 277.995569 130.439223 
L 277.787219 129.301383 
L 277.360407 128.962661 
L 276.270598 129.511819 
L 276.680984 129.662104 
L 277.164687 129.97444 
L 276.694541 130.297509 
L 276.382339 132.044915 
L 276.51365 133.063803 
L 274.810105 133.368694 
L 275.893445 134.524911 
L 276.149844 135.636713 
L 274.733784 135.412529 
L 272.202006 134.474683 
L 270.788436 135.286025 
L 269.921698 133.958993 
L 267.488984 131.103789 
L 267.689527 132.184286 
L 268.055089 132.631015 
L 268.191081 132.208885 
L 270.140764 130.729102 
L 269.56526 127.054088 
L 271.152635 126.712909 
L 271.897603 127.141004 
L 273.243322 127.625214 
L 274.439519 128.252512 
L 275.133979 126.492361 
L 273.657415 125.208663 
L 276.279135 120.242788 
L 275.481624 122.434969 
L 274.861457 122.645946 
L 274.769563 122.196613 
L 273.79925 121.432871 
L 272.570216 121.008846 
L 271.605933 122.217688 
L 268.802633 121.44514 
L 266.146788 124.206319 
L 264.045048 124.131071 
L 264.493489 125.348712 
L 265.871441 127.688541 
L 263.573397 128.43934 
L 261.610221 129.872981 
L 261.012125 128.329829 
L 256.910492 128.406454 
L 258.055996 128.498519 
L 258.836838 124.300673 
L 261.019679 120.854133 
L 257.894948 120.381832 
L 256.888315 118.35568 
L 259.171467 114.781999 
L 237.870537 107.583687 
L 233.937735 106.916573 
L 232.661492 106.022154 
L 231.640488 97.095347 
L 230.612452 96.494479 
L 235.663606 92.571885 
L 203.579909 116.543594 
L 201.094202 112.262768 
L 203.289609 146.588063 
L 203.21683 147.252107 
L 196.579047 156.045049 
L 193.815478 153.241975 
L 198.707731 162.94556 
L 197.872359 163.853122 
L 199.924656 165.00453 
L 201.303526 165.9881 
L 200.826562 162.964745 
L 204.24721 164.14759 
L 205.560058 162.680076 
L 204.808416 161.774863 
L 206.828596 164.757831 
L 204.849592 167.374672 
L 204.321421 224.532201 
L 204.030673 225.091953 
L 203.161936 225.807489 
L 203.114912 228.578889 
L 207.478017 233.769038 
L 227.492077 240.37443 
L 233.667126 238.620644 
L 233.716226 236.683032 
L 239.793471 241.311051 
L 238.178496 242.003399 
L 239.528348 245.833525 
L 239.246752 247.312766 
L 242.722859 248.122504 
L 243.917409 249.556339 
L 240.486462 250.67784 
L 236.858564 251.282134 
L 235.836746 251.27791 
L 236.027982 252.491327 
L 237.996608 254.53502 
L 240.264757 255.454999 
L 241.452503 255.780173 
L 239.693054 256.484234 
L 239.997112 257.461546 
L 247.055039 252.255392 
L 251.53497 252.747311 
L 252.089617 255.253329 
L 255.116121 255.249324 
L 255.255658 254.204592 
L 255.690749 252.075792 
L 254.74453 249.829558 
L 256.719012 249.737557 
L 254.47298 246.534683 
L 254.72767 244.981689 
L 252.099938 246.898229 
L 252.617145 247.686762 
L 252.821741 249.011989 
L 250.696139 244.199608 
L 246.407801 244.15661 
L 242.499232 243.759039 
L 234.503069 246.183491 
L 233.142923 246.276631 
L 233.867219 248.476137 
L 231.943074 252.862212 
L 249.88387 260.930934 
L 250.423769 260.158381 
L 252.003005 259.398551 
L 252.853953 259.167096 
L 253.985688 259.684887 
L 254.448051 258.182052 
L 253.444853 258.054372 
L 255.720877 257.49462 
L 256.310836 256.371976 
L 259.715552 257.889094 
L 260.440731 255.855236 
L 257.785736 259.953955 
L 258.036688 261.035071 
L 258.967691 260.524255 
L 259.737263 261.174688 
L 261.134975 262.048844 
L 261.069563 262.405645 
L 260.687875 262.664717 
L 261.337829 261.660819 
L 262.105764 263.2498 
L 262.358497 263.117163 
L 263.968186 263.343567 
L 264.02293 261.428765 
L 264.376031 260.56452 
L 266.031241 262.366916 
L 266.558368 262.663036 
L 266.391077 263.600927 
L 267.521551 263.694341 
L 267.514557 263.252703 
L 268.472613 262.972313 
L 268.599626 262.721927 
L 268.474316 262.172801 
L 269.548534 261.994313 
L 270.744359 262.015108 
L 270.993247 261.153724 
L 271.209209 260.947541 
L 270.976246 260.750338 
L 270.500591 260.941753 
L 271.526753 259.769099 
L 271.429587 258.460308 
L 271.529116 257.0473 
L 272.114054 255.010575 
L 275.10217 255.478377 
L 275.566441 253.866526 
L 275.784172 252.579245 
L 277.131723 251.902202 
L 278.557185 249.517991 
L 279.919592 250.699989 
L 280.90946 248.973624 
L 280.989551 248.09282 
L 281.997994 251.932018 
L 279.813879 254.937396 
L 277.358733 255.471324 
L 278.214166 260.05222 
L 276.313681 261.164679 
L 276.043621 261.180827 
L 274.272098 262.035994 
L 273.379051 261.389909 
L 272.963273 261.978738 
L 272.821462 263.238824 
L 274.534722 263.144659 
L 274.502126 263.687468 
L 277.854681 263.238345 
L 279.6904 262.542139 
L 280.978358 260.556572 
L 281.679981 258.068376 
L 282.36073 257.519116 
L 269.087006 257.044311 
L 266.099614 258.767127 
L 267.1338 260.940485 
L 269.507452 263.590257 
L 269.772275 263.550451 
L 266.210599 253.537384 
L 263.892164 249.470208 
L 264.999827 247.66838 
L 266.208147 247.116399 
L 268.63187 247.939204 
L 263.345486 246.333871 
L 262.491536 247.3519 
L 260.927577 246.488324 
L 260.308799 247.875225 
L 258.548253 245.530584 
L 259.343198 244.960463 
L 261.040206 244.264784 
L 261.861721 241.690865 
L 260.631044 240.857074 
L 272.04085 239.233331 
L 274.573032 237.096141 
L 271.532925 233.112862 
L 272.112889 229.298716 
L 273.293845 227.624479 
L 273.691568 226.798897 
L 276.736679 232.050079 
L 277.423262 232.481815 
L 278.601451 232.823707 
L 279.420564 233.646659 
L 281.775831 235.3038 
L 283.826136 236.176029 
L 283.703059 237.357194 
L 282.32128 238.500562 
L 280.986314 238.077791 
L 285.129594 239.369775 
L 287.385109 238.951165 
L 283.550215 233.538539 
L 276.824437 244.77773 
L 274.323436 243.404103 
L 260.500774 227.450704 
L 265.077578 223.416078 
L 253.217514 215.965929 
L 250.917621 214.004146 
L 256.355955 204.346661 
L 280.440169 192.202664 
L 280.928732 190.78756 
L 283.290366 192.727528 
L 282.149329 193.570731 
L 281.128472 193.323096 
L 280.866379 194.215713 
L 280.857189 195.920318 
L 281.646527 197.295351 
L 280.331101 197.485749 
L 277.829668 202.415514 
L 277.979998 206.721843 
L 276.220196 207.199392 
L 272.960256 213.059438 
L 271.066225 208.297085 
L 272.130402 206.402418 
L 274.319669 204.89714 
L 274.623782 203.587598 
L 275.842968 202.90284 
L 275.530064 201.627967 
L 274.196029 199.522129 
L 274.405444 199.177123 
L 272.541488 197.886988 
L 275.282551 194.896124 
L 274.627211 192.599 
L 274.07253 192.330991 
L 274.610408 191.045246 
L 274.695032 189.728484 
L 275.920308 186.722175 
L 275.86583 185.48413 
L 274.869994 183.507607 
L 273.569492 185.207926 
L 272.92658 184.196069 
L 272.665155 182.970892 
L 272.061615 178.008157 
L 275.166963 177.256779 
L 272.695057 173.742761 
L 270.533643 175.022517 
L 265.315195 174.566039 
L 265.823202 171.831639 
L 266.56963 169.089046 
L 265.673155 168.915351 
L 262.127037 168.866406 
L 261.368338 166.922586 
L 262.36442 164.91774 
L 263.472079 158.765667 
L 262.63914 158.665007 
L 261.036699 158.709498 
L 259.479064 151.75174 
L 260.496599 154.656467 
L 257.082053 155.928049 
L 255.06415 158.294122 
L 249.15344 153.567793 
L 248.429179 152.305314 
L 251.148393 151.15682 
L 255.017533 151.095618 
L 256.58087 146.551026 
L 258.362002 146.973528 
L 258.117906 146.136229 
L 260.722963 143.050304 
L 256.986279 142.441395 
L 259.267479 138.992641 
L 260.336526 135.024047 
L 263.024594 137.299628 
L 264.80281 135.909379 
L 264.864051 135.25193 
L 264.435873 134.557535 
L 263.353788 134.64722 
L 263.527179 134.444334 
L 262.917393 133.906741 
L 262.315823 132.44554 
L 261.178534 132.090591 
L 260.487144 131.75576 
L 257.23602 132.997761 
L 256.681231 131.199654 
L 253.699582 130.038928 
L 252.143238 128.707883 
L 248.276332 127.422699 
L 249.477921 126.538016 
L 249.419753 123.651508 
L 245.219624 124.342646 
L 241.454727 122.335588 
L 241.051958 126.893973 
L 233.81144 127.254909 
L 235.986912 128.004871 
L 234.459711 130.231692 
L 226.350491 131.806701 
L 214.215517 126.184276 
L 218.585769 130.306542 
L 219.721142 134.929039 
L 216.811695 136.689372 
L 214.753321 135.121787 
L 214.418063 136.810963 
L 214.296653 140.535188 
L 216.157047 141.266617 
L 215.86991 144.00563 
L 212.710888 144.020812 
L 212.037624 148.852024 
L 210.972921 150.79973 
L 210.654683 152.106351 
L 211.387052 152.952044 
L 211.235486 153.098529 
L 210.88899 157.083092 
L 215.433385 156.192404 
L 214.922122 156.09749 
L 214.180712 155.810277 
L 214.407872 155.168754 
L 215.170837 152.679612 
L 215.134258 153.172526 
L 218.386493 154.081962 
L 217.097425 153.420609 
L 218.533112 151.653798 
L 216.109134 149.367212 
L 215.104735 146.790689 
L 215.470639 147.796202 
L 214.101334 148.382007 
L 214.169162 147.484132 
L 213.092592 145.980296 
L 210.84839 146.089861 
L 210.23169 144.204808 
L 207.17085 144.145862 
L 206.109655 144.922711 
L 206.042206 144.565994 
L 203.570556 143.965647 
L 204.023024 137.568469 
L 200.684783 135.39915 
L 200.71582 135.399696 
L 200.710937 135.053843 
L 199.903542 134.563481 
L 195.238904 130.545473 
L 196.673553 129.372777 
L 198.714919 129.084622 
L 206.378064 129.358415 
L 209.493694 129.807696 
L 210.261654 134.178703 
L 209.669642 134.717147 
L 207.757267 136.001246 
L 206.966073 136.277457 
L 207.541464 137.766739 
L 207.430508 138.227648 
L 207.075142 138.369864 
L 207.029499 138.764295 
L 208.689508 141.182206 
L 207.164526 141.122276 
L 206.53298 141.927433 
L 204.970477 142.682398 
L 203.99408 142.454541 
L 203.92371 140.85828 
L 202.710991 140.986722 
L 202.487087 141.228296 
L 202.13221 141.315257 
L 201.146227 140.19368 
L 198.178439 139.163454 
L 199.033876 138.656924 
L 198.555073 137.138919 
L 196.427335 135.099388 
L 197.667278 134.154403 
L 198.502914 132.752372 
L 199.466409 132.275029 
L 202.355775 132.071113 
L 203.805748 130.679832 
L 203.017345 128.568691 
L 201.731525 126.419633 
L 198.796643 125.593752 
L 195.358044 126.048105 
L 194.548089 127.059258 
L 194.650457 126.483477 
L 189.744434 118.775343 
L 192.994765 117.754353 
L 194.720859 112.831601 
L 192.381349 111.40098 
L 191.355332 109.559949 
L 187.839228 110.139685 
L 187.519823 110.746591 
L 186.795676 111.535163 
L 188.109397 112.036299 
L 188.172738 112.67846 
L 187.200116 113.082307 
L 187.619629 113.522855 
L 189.640827 114.42602 
L 189.206882 116.404731 
L 189.544975 116.180612 
L 190.850794 116.518976 
L 190.765787 116.22353 
L 191.566533 115.966676 
L 191.69527 115.058867 
L 190.943418 114.423012 
L 190.862954 114.055213 
L 191.705491 113.463438 
L 190.724119 112.393293 
L 189.559813 111.536195 
L 190.489885 110.821351 
L 190.180626 111.030756 
L 189.593069 110.840274 
L 189.593409 108.898107 
L 190.44066 107.487706 
L 192.505547 107.570446 
L 194.082976 106.802572 
L 196.163882 107.990575 
L 196.573159 106.283776 
L 200.988221 106.440708 
L 205.774635 104.171782 
L 210.453263 102.398967 
L 213.2241 103.615685 
L 212.227097 105.002921 
L 210.879072 104.508271 
L 208.31835 107.764054 
L 209.584897 110.59419 
L 212.421594 114.933958 
L 211.641168 119.006447 
L 208.332904 119.853436 
L 206.617743 122.93124 
L 206.699747 123.015607 
L 205.983041 124.543631 
L 205.613514 124.053335 
L 202.113069 121.845464 
L 201.719479 119.005041 
L 198.042597 120.150431 
L 196.371974 117.219244 
L 193.695387 122.765872 
L 193.971383 121.112149 
L 193.68734 120.205746 
L 193.422625 120.379953 
L 191.124363 120.985571 
L 191.968843 120.92688 
L 191.799403 122.393402 
L 191.332213 125.128647 
L 192.486869 124.078792 
L 191.983485 124.095649 
L 191.793726 124.497517 
L 192.51283 124.841574 
L 192.785457 125.232976 
L 193.806018 125.715875 
L 193.31273 125.525958 
L 192.049322 127.454664 
L 193.313358 128.704003 
L 193.751896 129.505681 
L 192.991096 129.901487 
L 193.545965 131.618938 
L 194.516126 131.613922 
L 194.917768 131.973142 
L 195.473378 132.832421 
L 192.894206 135.238197 
L 193.860506 135.893916 
L 194.317391 135.585348 
L 195.491759 136.380908 
L 196.341709 137.577732 
L 193.153859 139.900692 
L 193.140082 138.116694 
L 193.354636 138.467076 
L 193.404214 138.215685 
L 194.573666 137.623524 
L 195.032426 138.163783 
L 194.540748 138.385003 
L 194.79008 139.38181 
L 194.944906 138.845833 
L 195.301033 139.047001 
L 195.515728 138.992487 
L 196.148231 140.687345 
L 195.65222 140.574282 
L 195.632365 140.721103 
L 195.596181 141.851968 
L 195.281035 142.376054 
L 195.376824 143.271193 
L 195.689801 144.274733 
L 195.043903 144.639753 
L 195.111318 148.123354 
L 196.475713 146.906727 
L 195.68523 146.423921 
L 195.063977 146.570622 
L 194.94475 145.747431 
L 195.669478 145.278117 
L 195.697766 145.830816 
L 196.904677 145.680113 
L 196.502539 144.835598 
L 197.217162 144.697717 
L 196.85017 143.817164 
L 198.023046 141.959494 
L 199.304051 140.998863 
L 199.71413 141.215379 
L 199.459484 141.61368 
L 200.168213 142.498472 
L 200.155066 144.474498 
L 198.745696 144.382829 
L 198.203269 144.833237 
L 197.751261 147.421343 
L 198.600001 148.022025 
L 198.153812 150.055433 
L 198.090942 149.326133 
L 197.346521 148.94036 
L 195.898362 149.96808 
L 194.289848 150.620783 
L 192.830104 150.603315 
L 193.208559 151.524698 
L 194.098844 151.942824 
L 194.204142 152.234203 
L 196.056225 151.929071 
L 195.42256 153.312805 
L 195.932828 153.539435 
L 196.29414 153.893733 
L 195.915858 154.358204 
L 193.173324 155.818908 
L 193.149287 157.343356 
L 194.192182 156.75349 
L 194.227786 157.937141 
L 194.619441 157.56333 
L 194.92008 157.505978 
L 196.719624 159.358365 
L 196.622875 161.612808 
L 198.597763 160.616679 
L 201.581126 158.142399 
L 201.25322 154.96317 
L 203.42991 151.689996 
L 207.007284 150.904752 
L 207.816622 148.344233 
L 207.829599 146.64002 
L 206.888667 147.277482 
L 206.245093 148.229585 
L 206.492142 148.512759 
L 207.166766 149.594962 
L 208.390215 149.64542 
L 208.882627 150.389412 
L 208.651391 151.005878 
L 208.771536 151.363879 
L 208.59873 151.843696 
L 209.283264 153.202723 
L 209.04817 153.382507 
L 208.571093 153.298076 
L 207.143399 155.840978 
L 207.426231 156.363464 
L 206.407974 156.70435 
L 207.377775 158.32416 
L 207.459582 160.893018 
L 207.983581 161.378658 
L 208.396683 163.128629 
L 210.446433 162.207707 
L 211.142241 160.749377 
L 211.065996 159.644555 
L 212.538923 159.707242 
L 214.302821 160.434107 
L 213.767466 161.067303 
L 214.273723 160.969856 
L 215.343689 163.391683 
L 214.175384 163.251923 
L 212.102408 163.566789 
L 212.589499 163.705255 
L 212.21478 164.48182 
L 211.121783 167.145449 
L 210.206188 167.552212 
L 209.140692 167.678197 
L 209.259653 168.683861 
L 207.994953 169.232368 
L 208.17831 170.503311 
L 209.276961 170.720916 
L 208.574003 171.890118 
L 208.519148 173.636981 
L 209.111846 176.618446 
L 209.564976 175.413479 
L 210.733189 176.224828 
L 210.967339 176.192537 
L 211.5607 176.680274 
L 212.38189 176.159794 
L 212.645546 176.2291 
L 212.544893 178.326345 
L 209.482708 181.38558 
L 209.841888 182.774236 
L 210.253745 182.968224 
L 210.425085 182.68999 
L 210.731125 182.50481 
L 210.53517 182.3267 
L 210.923195 180.547824 
L 210.525285 178.960535 
L 212.238403 179.848702 
L 212.678708 181.041213 
L 212.918749 180.844595 
L 215.782167 180.157037 
L 214.722716 180.836737 
L 214.305089 182.586754 
L 215.039083 184.419926 
L 212.809484 185.897302 
L 211.739091 186.741962 
L 213.107711 187.709596 
L 212.648886 189.530558 
L 213.609483 191.055348 
L 214.542569 191.11871 
L 215.993395 192.660417 
L 216.165224 196.634836 
L 221.058256 195.637871 
L 221.202524 199.67726 
L 220.115845 200.092945 
L 220.87392 201.810508 
L 223.952038 202.261742 
L 224.645689 204.722563 
L 221.232758 205.847829 
L 219.212665 208.86518 
L 217.566117 206.309368 
L 214.627952 208.3941 
L 214.092032 210.51228 
L 214.874524 210.466387 
L 216.378886 213.948372 
L 217.33745 216.816779 
L 220.284127 219.501509 
L 219.55008 217.456563 
L 222.143295 213.62038 
L 222.540892 212.380732 
L 220.138268 210.442862 
L 220.933119 209.810878 
L 221.244007 208.381285 
L 222.788036 208.975285 
L 226.822828 210.327071 
L 225.346155 211.428068 
L 226.360509 211.921547 
L 226.928693 212.066219 
L 232.325006 212.332104 
L 229.767884 214.270738 
L 229.406817 216.971182 
L 227.287471 219.636448 
L 231.606886 221.299603 
L 232.257262 222.591793 
L 232.701196 222.203766 
L 234.481183 220.30226 
L 234.582163 219.624805 
L 235.012097 218.944441 
L 234.661215 216.806468 
L 234.110409 215.44694 
L 234.302422 215.147993 
L 235.13212 212.936784 
L 239.275249 214.390846 
L 241.984081 219.229921 
L 241.625526 218.953022 
L 241.723848 216.804061 
L 242.535153 216.530136 
L 243.796783 215.916824 
L 244.349024 217.618986 
L 245.286985 218.415025 
L 246.644968 219.392821 
L 244.845183 220.609436 
L 245.856085 224.869519 
L 244.828718 226.39116 
L 242.660552 227.216936 
L 240.376596 229.100681 
L 240.758463 230.439798 
L 239.4344 230.9201 
L 236.090297 232.776676 
L 235.995117 233.471871 
L 235.143003 235.218289 
L 235.751262 236.377068 
L 236.371445 238.185185 
L 237.029804 237.429703 
L 238.969937 236.509803 
L 239.650582 236.949941 
L 240.189608 238.637774 
L 240.960953 239.194598 
L 241.673134 239.440729 
L 243.549898 239.020126 
L 242.855304 239.909418 
L 244.235026 240.467585 
L 244.485972 242.170589 
L 245.809895 242.00965 
L 246.025 240.279702 
L 247.215576 240.824682 
L 251.15515 237.848933 
L 256.110062 236.382379 
L 254.365495 233.052116 
L 255.189382 229.904036 
L 257.104918 230.690222 
L 259.310004 230.078053 
L 260.38545 230.796611 
L 261.913166 235.431467 
L 262.601964 233.898493 
L 262.408384 232.134577 
L 266.535921 229.303298 
L 267.330166 231.602207 
L 266.524255 234.492028 
L 268.246368 234.749426 
L 269.485387 236.940207 
L 271.095285 236.58708 
L 272.263188 237.292372 
L 272.924361 238.314954 
L 273.849828 238.87048 
L 275.395136 240.704957 
L 277.694272 239.555721 
L 278.747499 240.080806 
L 280.533237 242.929177 
L 283.301837 243.742314 
L 282.600091 245.764125 
L 283.075113 245.681854 
L 285.448255 246.044597 
L 284.706591 246.520487 
L 286.106354 248.485478 
L 285.598503 250.503957 
L 287.794938 252.028679 
L 285.697363 254.145477 
L 284.668012 255.700544 
L 284.406012 256.379863 
L 285.087913 256.743609 
L 304.469721 265.277795 
L 303.906487 264.796693 
L 304.494426 262.677962 
L 305.144659 263.285344 
L 305.353784 263.799723 
L 305.514863 264.662746 
L 306.059723 264.781567 
L 305.935001 264.793661 
L 305.964877 265.425808 
L 307.005077 265.641169 
L 307.426144 264.409639 
L 310.076547 265.057933 
L 309.517815 265.065385 
L 309.778151 263.807253 
L 309.965629 263.447346 
L 308.461229 262.404685 
L 307.682071 262.578203 
L 307.01142 261.520894 
L 307.61857 261.141052 
L 309.747636 240.281678 
L 323.068099 234.480368 
L 322.869525 234.772018 
L 320.088031 243.070123 
L 320.344241 242.913248 
L 320.378199 242.453963 
L 319.955791 241.710169 
L 318.758209 241.763573 
L 314.378431 242.719795 
L 314.308579 243.96931 
L 308.993414 249.854519 
L 308.561294 249.023404 
L 308.148767 248.901693 
L 306.998864 246.257043 
L 304.168564 245.780997 
L 302.631886 247.212868 
L 302.784389 247.522128 
L 300.001667 250.980087 
L 300.560359 254.554421 
L 301.936606 254.152062 
L 302.903885 254.033037 
L 309.391221 255.30886 
L 309.551331 256.054755 
L 307.839238 256.472576 
L 306.0108 256.331865 
L 304.214278 255.539056 
L 305.505057 254.470631 
L 306.538487 252.883973 
L 308.423121 252.782644 
L 309.109062 252.527031 
L 311.007291 251.280373 
L 311.224701 250.881382 
L 311.244204 250.405586 
L 310.853032 248.959024 
L 312.353599 248.767198 
L 312.411613 249.164281 
L 312.97624 250.438089 
L 312.572487 251.545891 
L 313.101604 251.243795 
L 313.76564 251.146321 
L 313.744297 251.603525 
L 313.301261 252.088378 
L 314.371343 252.754593 
L 313.641633 255.263035 
L 314.103678 254.855748 
L 314.041893 254.243344 
L 312.047431 253.239375 
L 311.455919 253.254023 
L 311.258387 254.565247 
L 312.145087 254.820471 
L 312.556834 254.801023 
L 312.448722 256.534136 
L 311.052306 256.119449 
L 310.471462 256.266244 
L 310.805633 256.740527 
L 312.208661 257.434801 
L 312.268428 258.565927 
L 311.616556 258.560793 
L 310.873528 259.63913 
L 312.440717 261.871511 
L 312.422325 263.266299 
L 311.522907 262.547957 
L 310.766627 262.51411 
L 310.59457 262.057139 
L 309.249534 260.592427 
L 308.354493 260.069671 
L 307.948759 260.287842 
L 307.088073 259.531983 
L 306.713426 258.908978 
L 305.234269 258.911732 
L 303.03431 259.918222 
L 295.180085 263.087806 
L 292.328974 259.149255 
L 288.109482 263.838605 
L 285.975132 266.768719 
L 285.450631 267.211178 
L 285.314317 266.675286 
L 285.639728 265.240333 
L 284.746591 265.289153 
L 283.915958 264.792963 
L 283.782889 263.332593 
L 283.079813 263.977673 
L 281.879731 263.699437 
L 280.976827 264.051537 
L 280.494799 265.157267 
L 280.739921 264.619718 
L 282.040098 265.526885 
L 282.269923 266.699455 
L 283.578226 267.443301 
L 283.791165 267.785164 
L 284.153773 269.130851 
L 288.820115 273.651031 
L 291.066185 273.371725 
L 290.726136 274.030663 
L 290.422086 275.477775 
L 290.761128 274.962142 
L 292.450009 274.895142 
L 291.778858 274.626249 
L 291.941523 274.3223 
L 293.052298 273.71362 
L 293.028996 274.287785 
L 294.198186 275.781936 
L 294.11586 275.534446 
L 294.046372 274.61205 
L 296.002236 273.509359 
L 299.666793 269.62034 
L 300.141904 269.191641 
L 300.012465 267.911683 
L 299.681999 268.120675 
L 299.463521 268.009414 
L 298.33226 268.638641 
L 298.733971 268.637893 
L 298.878879 268.87377 
L 298.090941 270.487145 
L 296.88619 270.553448 
L 296.240692 269.982965 
L 295.732438 270.029525 
L 294.663576 271.492939 
L 294.529705 271.951741 
L 293.949526 272.212131 
L 292.671681 272.455338 
L 293.181781 271.934975 
L 292.739866 270.127308 
L 292.460818 270.528403 
L 292.646139 270.920143 
L 291.496799 271.34537 
L 291.140731 272.317035 
L 289.934356 271.679661 
L 289.92337 272.552203 
L 289.275462 272.584188 
L 288.868958 271.686225 
L 286.279039 271.834902 
L 286.333509 271.379425 
L 286.885806 269.341271 
L 287.166708 269.169775 
L 287.003478 268.911848 
L 287.908232 268.066479 
L 288.873997 267.595976 
L 290.658719 267.700302 
L 291.718052 267.447438 
L 293.375036 268.009433 
L 293.383239 267.244234 
L 296.148415 266.000317 
L 295.792413 266.347242 
L 295.13313 267.845826 
L 295.630183 268.370222 
L 296.544311 268.274606 
L 297.050616 267.332182 
L 297.728943 266.4482 
L 299.592254 266.046947 
L 301.503709 264.8945 
L 300.542055 264.26655 
L 301.357141 263.413536 
L 301.830776 263.148367 
L 300.767704 261.053279 
L 298.88764 259.187915 
L 296.134718 259.984127 
L 294.560069 258.849735 
L 294.629925 254.058358 
L 294.008388 255.52845 
L 293.993565 255.0633 
L 290.835292 254.046217 
L 289.657066 253.954555 
L 289.827464 252.386737 
L 290.278528 252.250999 
L 289.794976 250.478225 
L 291.381691 251.134187 
L 292.854924 252.476936 
L 294.812782 251.316566 
L 296.256127 246.273812 
L 298.139343 248.244422 
L 298.265859 247.639595 
L 299.845621 244.428563 
L 296.374963 241.059798 
L 294.369741 243.475116 
L 292.061289 245.594492 
L 291.066154 245.423866 
L 288.636834 245.441963 
L 287.872708 245.733213 
L 286.563536 244.260718 
L 286.026121 242.816839 
L 288.283762 242.206433 
L 288.69864 243.076924 
L 290.334317 243.769491 
L 291.550567 243.327025 
L 292.19665 239.379228 
L 290.892305 235.587206 
L 290.336015 235.904658 
L 289.875339 234.818853 
L 288.038723 230.80668 
L 286.840802 232.045372 
L 283.769239 229.287226 
L 256.504063 260.578823 
L 256.307581 261.05256 
L 253.634057 261.36863 
L 48.902737 341.317104 
L 35.978094 349.917824 
L 35.439597 349.83613 
L 33.380957 364.077011 
L 258.835563 17.51471 
L 257.268497 15.508115 
L 257.268497 15.508115 
" clip-path="url(#pb47be8abd2)" style="fill: none; stroke: #1f77b4; stroke-width: 2; stroke-linecap: round"/>
   </g>
  </g>
 </g>
 <defs>
  <clipPath id="pb47be8abd2">
   <rect x="0" y="0" width="558" height="371.323636"/>
  </clipPath>
 </defs>
</svg>
