<svg xmlns="http://www.w3.org/2000/svg" viewBox="0 0 630 800">
<polyline points="453,756 452,754 451,753 448,753 448,753 446,753 445,753 446,751 446,750 445,750 445,750 444,749 444,748 443,748 443,749 443,749 443,751 439,752 438,752 438,754 437,754 437,756 437,758 438,758 438,759 439,760 441,760 441,758 440,756 441,755 440,754 436,752 434,751 432,751 432,751 431,754 431,755 431,756 431,757 433,756 434,756 434,759 434,760 436,760 436,761 437,762 438,762 438,762 439,762 439,764 440,764 441,763 443,763 443,761 443,760 445,760 446,760 447,760 447,761 447,762 447,762 447,763 447,765 448,765 449,764 449,762 448,761 448,759 447,759 446,759 446,759 444,758 447,757 450,758 451,759 452,761 450,761 452,763 454,761 455,758 456,758 457,758 458,756 458,754 459,754 461,754 462,754 463,755 463,755 464,754 464,753 465,751 465,750 466,749 465,747 463,747 463,745 462,745 462,743 462,743 461,743 459,742 458,743 457,741 458,738 460,738 460,737 460,736 460,734 461,734 462,733 461,732 460,731 459,729 461,729 463,731 465,730 464,729 464,725 463,723 461,723 459,723 459,724 460,721 462,719 466,719 468,717 469,718 470,718 474,717 473,715 477,714 477,714 479,715 483,715 484,718 486,721 487,725 488,726 489,726 489,724 490,724 492,726 491,727 494,725 495,724 498,721 499,721 500,719 502,722 502,725 503,725 502,729 505,731 507,733 508,737 506,740 508,744 506,745 504,745 504,744 503,747 503,747 504,749 505,750 505,751 505,753 504,758 505,760 503,760 499,760 499,765 499,765 499,766 496,764 495,764 497,770 495,774 494,775 495,776 497,777 492,778 491,775 488,771 492,770 485,768 485,768 483,767 482,764 487,764 487,762 485,755 483,754 483,754 482,755 480,754 479,754 479,757 479,758 478,760 474,760 472,760 471,759 469,760 469,761 467,760 467,760 465,762 463,762 462,761 461,761 460,760 461,763 461,764 460,764 460,765 461,765 462,764 462,766 461,767 461,767 461,768 462,768 463,768 463,769 465,771 465,774 464,774 463,774 462,775 460,775 459,776 459,777 462,778 464,777 465,776 467,780 467,782 470,781 470,780 472,780 472,777 473,777 471,775 470,775 471,773 472,773 473,773 473,771 472,770 472,769 472,769 471,770 470,770 469,769 468,768 470,768 470,765 471,765 472,765 474,765 474,765 473,763 473,762 473,767 474,769 475,772 476,772 477,772 478,773 477,774 477,774 476,776 478,778 478,779 478,779 479,779 477,780 477,782 478,783 479,782 480,784 480,786 481,786 481,786 480,788 479,789 477,789 476,790 475,791 474,791 476,792 476,792 476,793 477,793 478,793 478,794 478,795 479,794 479,793 480,793 480,795 480,795 481,796 480,797 479,798 476,798 471,799 468,799 468,799 466,799 464,798 464,798 464,796 464,795 463,794 463,792 462,791 462,791 463,790 465,790 465,790 466,791 467,792 468,793 467,794 467,795 470,795 472,792 470,790 470,789 468,789 468,788 469,786 470,787 471,787 472,786 472,786 472,786 474,786 476,786 476,787 475,788 477,791 478,786 476,783 481,778 481,776 480,774 480,772 480,771 479,770 480,769 484,776 483,780 483,781 483,781 484,782 485,780 489,785 488,786 486,787 486,787 486,788 485,787 484,790 483,790 483,792 483,793 483,794 482,793 486,794 487,794 487,794 488,794 488,795 488,792 487,792 489,790 493,790 496,789 499,789 501,789 501,790 502,791 501,792 499,794 499,795 499,796 500,798 497,799 491,799 491,797 489,799 487,799 487,798 487,798 485,798 482,799" style="fill:none;stroke:black;stroke-width:0.5" />
</svg>