<svg xmlns="http://www.w3.org/2000/svg" viewBox="0 0 256 256">
<polyline points="49,178 44,180 37,175 36,179 37,180 35,181 31,179 26,175 23,175 22,173 20,175 20,172 22,171 14,161 28,169 30,165 37,164 40,162 42,167 41,174 45,166 50,163 56,173 56,160 52,155 50,150 48,151 48,152 46,153 44,156 38,154 28,155 26,155 26,142 20,141 15,143 14,151 10,149 5,149 10,147 9,143 0,140 2,150 1,156 4,165 6,166 1,169 0,177 5,185 4,188 5,192 10,189 14,186 17,191 13,191 10,193 7,198 3,196 0,197 1,207 1,210 3,213 2,214 0,242 11,236 16,235 24,236 21,233 21,228 22,219 10,209 14,203 16,207 21,209 24,206 19,201 13,199 20,196 28,189 25,184 30,186 32,188 38,192 34,197 31,196 34,204 32,208 38,206 50,207 47,212 48,226 46,227 38,228 37,228 43,215 39,215 29,215 30,223 33,229 29,232 33,232 35,232 34,237 34,242 27,241 24,243 26,248 21,246 18,249 21,252 21,254 28,255 37,251 49,245 51,246 50,244 50,243 39,240 46,233 48,236 54,242 60,240 61,237 60,237 51,232 51,230 51,229 65,221 67,228 69,228 72,228 79,235 86,229 87,222 89,223 87,228 85,237 87,245 87,245 81,245 74,241 68,244 69,246 61,250 79,253 85,255 92,252 90,244 101,242 98,231 103,230 109,232 116,225 115,217 113,211 113,209 94,211 93,219 93,220 92,220 85,213 84,215 72,215 85,205 93,205 94,205 95,195 94,191 96,188 97,187 98,184 92,180 105,175 103,169 105,161 105,160 113,159 109,153 110,150 96,148 95,153 87,154 87,150 90,144 94,146 97,142 104,138 107,137 112,135 118,129 110,140 118,149 120,152 122,148 131,130 123,120 119,101 105,103 99,99 99,97 92,89 95,84 110,91 116,89 120,94 129,85 150,98 153,103 144,112 141,119 136,121 138,130 148,126 143,135 145,138 150,138 149,139 143,144 143,150 149,149 150,152 154,154 149,157 145,157 132,151 138,166 130,169 125,165 119,168 113,167 112,165 108,170 113,172 109,184 115,187 118,184 124,190 129,186 128,195 135,192 137,194 141,187 138,185 133,184 130,184 129,181 131,176 135,177 139,178 141,174 140,171 143,172 154,173 158,177 158,177 156,186 150,187 154,191 161,196 159,201 163,207 158,210 164,218 161,220 148,218 143,217 135,207 128,228 131,231 133,234 137,236 128,236 127,237 121,230 118,236 114,240 115,241 114,241 112,241 112,243 106,249 99,248 95,250 98,255 101,252 104,255 114,249 117,248 123,252 124,242 132,241 137,243 141,242 148,235 154,226 144,247 145,249 146,252 149,250 150,252 157,255 167,238 169,234 172,233 179,235 179,237 179,239 180,246 175,251 181,248 182,246 190,248 190,250 191,255 209,245 207,224 215,225 212,237 212,243 216,247 222,246 220,252 238,254 253,255 248,241 250,239 248,233 247,239 246,241 244,239 243,242 233,240 227,233 237,223 238,219 244,223 249,226 252,229 252,229 253,227 253,217 248,208 248,207 251,204 248,203 251,191 255,178 254,175 255,173 247,173 247,167 249,161 249,158 248,157 240,160 238,165 235,164 232,166 235,181 235,184 236,185 239,185 244,184 237,188 236,193 242,190 245,195 237,202 240,207 237,208 233,205 233,209 231,218 231,220 227,216 220,216 211,216 203,207 210,202 216,205 220,207 221,208 226,213 230,204 230,201 226,199 211,194 210,192 205,197 205,200 205,201 201,197 199,203 199,205 197,216 182,227 180,226 176,222 185,210 177,207 178,200 175,200 170,196 188,191 191,183 188,181 193,178 199,178 198,186 194,186 198,193 215,186 207,183 208,178 214,173 208,167 210,166 210,166 221,169 232,162 236,159 237,156 230,154 229,155 227,153 228,147 222,150 223,152 213,154 213,152 209,152 213,158 198,162 195,167 195,167 194,167 192,165 186,177 181,178 184,172 179,168 174,168 169,180 163,170 152,169 155,166 154,159 154,159 159,157 159,148 170,152 183,151 184,160 189,156 197,156 188,149 195,147 196,148 199,139 204,136 205,135 202,129 210,129 215,125 219,124 222,125 217,121 214,120 206,120 203,115 206,112 205,106 202,104 195,107 185,112 189,120 189,120 201,112 200,121 202,124 198,127 197,126 188,129 182,140 178,140 179,130 175,120 177,105 177,102 152,93 158,90 158,80 153,53 153,52 141,47 150,43 150,39 153,36 158,32 161,48 166,46 173,47 172,53 175,56 183,54 184,54 186,51 186,49 184,49 176,49 172,43 172,41 173,33 172,30 177,35 183,27 181,22 179,21 179,20 178,11 188,12 189,13 190,23 191,27 188,35 192,32 195,32 197,32 196,28 203,24 203,17 209,22 211,24 210,26 205,28 203,28 202,32 201,34 201,35 207,43 208,45 213,35 217,34 219,32 222,36 223,32 227,24 234,25 234,26 234,38 242,46 238,46 238,48 231,52 233,53 236,61 235,67 226,64 222,67 223,74 225,77 228,76 229,82 225,89 215,91 218,82 222,83 221,80 215,81 215,78 210,72 210,69 209,68 205,70 207,66 215,65 213,63 213,61 220,50 221,48 202,52 199,48 198,49 191,50 190,48 189,50 194,53 193,62 194,62 197,65 198,67 197,68 190,68 175,65 190,72 204,79 201,85 198,86 193,89 193,93 199,94 201,92 208,90 209,102 217,108 219,98 222,97 226,95 229,99 228,102 221,106 222,109 227,108 225,110 226,117 226,124 223,132 216,131 213,141 215,145 219,141 220,140 220,138 220,136 224,138 228,139 234,136 235,136 243,140 242,147 242,149 245,147 251,148 246,138 247,134 245,132 254,126 243,129 236,130 234,127 237,124 238,118 237,118 229,114 234,107 238,109 239,106 244,103 247,103 248,106 250,103 250,94 252,94 253,85 247,88 241,92 240,94 232,90 232,88 233,87 239,82 247,71 239,66 251,59 255,55 254,53 253,53 255,37 249,34 246,36 245,27 254,19 252,13 249,8 245,9 243,5 231,8 227,1 223,1 224,4 223,5 221,4 220,7 224,11 227,12 224,16 222,21 217,4 216,2 212,1 206,6 203,6 198,10 194,9 191,10 187,8 187,2 186,0 177,0 175,0 163,0 154,6 154,12 144,5 144,1 130,14 131,14 136,14 143,17 150,19 156,25 141,26 138,28 132,25 123,17 124,9 123,8 111,9 112,2 103,4 99,8 95,15 93,15 86,6 85,8 83,12 79,16 82,19 72,27 75,29 83,30 80,32 80,35 79,37 80,42 86,46 89,42 88,40 89,39 91,42 91,49 93,49 94,48 94,44 96,40 97,33 95,31 98,22 104,24 108,18 110,26 108,28 119,30 119,36 119,44 124,34 124,34 133,32 137,32 132,36 129,44 127,44 125,44 123,56 140,68 133,75 132,73 113,71 92,67 89,64 86,56 82,54 81,54 84,60 85,67 79,77 73,90 76,91 77,94 80,106 77,108 78,114 69,119 64,113 60,112 57,109 55,100 65,99 68,94 60,96 60,91 54,93 51,95 45,100 37,102 36,100 35,98 42,94 41,89 48,89 57,82 59,82 58,77 69,81 62,66 60,64 55,65 50,56 50,48 50,47 41,46 42,54 41,55 28,48 27,48 26,58 36,60 28,70 30,72 36,75 31,86 31,92 28,101 17,87 16,80 8,77 13,67 14,66 16,68 19,66 20,56 20,55 16,56 15,53 15,50 24,42 25,40 29,38 32,40 36,34 49,33 47,38 51,39 52,42 52,43 58,47 61,48 72,54 71,47 70,45 64,43 61,40 66,40 66,39 71,38 74,38 68,37 56,28 48,28 59,17 61,9 80,0 62,0 58,5 53,4 43,2 44,10 48,10 47,12 47,17 48,20 39,27 36,27 33,30 27,32 20,32 18,40 13,38 20,26 26,12 17,10 20,3 18,3 14,3 4,5 3,8 8,17 6,17 0,24 3,24 8,27 7,29 8,32 0,34 4,42 6,48 9,52 8,57 2,62 2,70 1,77 4,82 6,88 11,88 12,90 18,96 17,103 19,104 15,111 15,112 11,109 11,103 5,106 10,116 1,115 3,118 2,122 2,122 6,126 3,132 9,132 11,127 16,130 15,123 19,121 22,123 22,109 22,106 24,104 25,104 32,108 34,114 44,130 43,121 46,115 53,118 55,118 61,116 59,122 52,125 50,131 53,135 48,136 48,137 48,139 46,139 40,141 40,143 42,145 46,143 49,143 51,140 52,141 60,141 58,128 62,130 67,135 76,129 78,124 79,124 99,126 81,140 75,143 68,147 65,160 74,157 73,164 81,168 79,178 79,179 78,178 76,177 74,176 65,180 72,184 77,185 82,185 80,188 80,189 80,192 77,202 74,204 61,197 57,196 58,200 54,205 54,202 53,199 51,199 50,199 52,194 47,190 52,184 60,194 67,188 63,186 62,180 50,182 48,182 47,182" style="fill:none;stroke:black;stroke-width:0.5" />
</svg>